<svg version="1.1" xmlns="http://www.w3.org/2000/svg" width="1024" height="1024">
<path d="M0 0 C337.92 0 675.84 0 1024 0 C1024 337.92 1024 675.84 1024 1024 C686.08 1024 348.16 1024 0 1024 C0 686.08 0 348.16 0 0 Z " fill="#FEFEFE" transform="translate(0,0)"/>
<path d="M0 0 C1.112 -0.006 2.224 -0.011 3.369 -0.017 C5.184 -0.019 5.184 -0.019 7.036 -0.021 C8.958 -0.028 8.958 -0.028 10.92 -0.036 C14.428 -0.049 17.936 -0.055 21.444 -0.06 C23.637 -0.063 25.829 -0.067 28.021 -0.071 C34.882 -0.085 41.743 -0.095 48.604 -0.098 C56.522 -0.103 64.439 -0.121 72.357 -0.149 C78.481 -0.171 84.605 -0.181 90.729 -0.182 C94.386 -0.184 98.042 -0.189 101.698 -0.207 C105.773 -0.227 109.848 -0.223 113.922 -0.216 C115.135 -0.225 116.347 -0.234 117.595 -0.244 C118.704 -0.238 119.813 -0.233 120.956 -0.227 C121.919 -0.229 122.882 -0.23 123.875 -0.231 C126.888 0.21 128.238 1.036 130.414 3.14 C131.395 6.081 131.543 8.006 131.547 11.07 C131.549 12.03 131.55 12.991 131.551 13.98 C131.547 14.982 131.543 15.983 131.539 17.015 C131.543 18.009 131.547 19.003 131.551 20.027 C131.55 20.99 131.549 21.953 131.547 22.945 C131.546 24.26 131.546 24.26 131.544 25.601 C131.411 28.201 130.988 30.604 130.414 33.14 C131.312 32.398 131.312 32.398 132.227 31.64 C136.898 29.442 141.334 29.9 146.414 30.14 C146.456 29.295 146.497 28.449 146.539 27.578 C147.997 21.853 151.491 18.409 156.352 15.203 C160.045 13.922 162.525 13.663 166.414 14.14 C168.083 15.167 169.751 16.196 171.395 17.262 C174.035 18.411 176.11 18.3 178.977 18.203 C183.674 18.049 186.484 18.307 190.414 21.14 C194.764 25.572 197.558 28.665 197.539 35.015 C197.542 35.879 197.545 36.743 197.547 37.633 C197.425 39.947 197.064 41.923 196.414 44.14 C197.136 44.512 197.858 44.883 198.602 45.265 C201.897 47.462 204.563 49.62 206.414 53.14 C207.541 59.014 206.199 62.934 203.414 68.14 C203.574 70.85 204.2 71.883 205.938 73.965 C207.642 76.476 207.876 77.82 207.914 80.828 C207.945 81.616 207.976 82.403 208.008 83.215 C206.32 91.532 200.57 97.588 194.789 103.453 C193.462 104.822 192.137 106.193 190.813 107.566 C190.232 108.158 189.651 108.75 189.053 109.36 C187.361 111.198 185.879 113.119 184.414 115.14 C185.787 115.106 185.787 115.106 187.188 115.07 C188.971 115.043 188.971 115.043 190.789 115.015 C192.564 114.981 192.564 114.981 194.375 114.945 C197.414 115.14 197.414 115.14 199.414 117.14 C199.789 119.578 199.789 119.578 199.414 122.14 C196.895 124.839 195.471 125.136 191.743 125.433 C190.383 125.414 189.023 125.378 187.664 125.328 C186.967 125.314 186.27 125.301 185.551 125.287 C183.839 125.252 182.126 125.198 180.414 125.14 C180.306 126.265 180.198 127.389 180.086 128.547 C179.473 133.424 178.131 137.96 176.664 142.64 C176.263 143.949 176.263 143.949 175.854 145.284 C175.049 147.905 174.234 150.523 173.414 153.14 C173.181 153.885 172.948 154.63 172.708 155.397 C171.868 158.081 171.026 160.765 170.18 163.447 C168.13 169.976 166.257 176.551 164.414 183.14 C165.178 183.429 165.941 183.718 166.727 184.015 C169.414 185.14 169.414 185.14 172.414 187.14 C172.47 186.218 172.47 186.218 172.528 185.277 C172.593 184.469 172.659 183.661 172.727 182.828 C172.814 181.627 172.814 181.627 172.903 180.402 C173.508 177.725 174.23 176.771 176.414 175.14 C179.477 174.765 179.477 174.765 182.414 175.14 C183.074 176.13 183.734 177.12 184.414 178.14 C186.753 178.429 186.753 178.429 189.352 178.203 C194.099 177.93 194.099 177.93 197.414 180.14 C197.823 182.852 197.548 185.384 197.414 188.14 C198.435 188.419 198.435 188.419 199.477 188.703 C206.566 192.172 211.017 198.465 214.305 205.5 C217.442 215.795 216.86 227.791 212.118 237.48 C209.09 242.209 205.401 246.208 201.414 250.14 C200.754 250.8 200.094 251.46 199.414 252.14 C200.01 252.16 200.605 252.18 201.219 252.201 C203.909 252.296 206.599 252.405 209.289 252.515 C210.227 252.546 211.164 252.577 212.129 252.609 C213.473 252.667 213.473 252.667 214.844 252.726 C215.672 252.758 216.499 252.789 217.351 252.822 C219.414 253.14 219.414 253.14 221.414 255.14 C221.789 257.578 221.789 257.578 221.414 260.14 C218.984 262.719 217.511 263.13 213.957 263.519 C212.542 263.537 211.127 263.537 209.712 263.525 C208.535 263.533 208.535 263.533 207.335 263.541 C204.691 263.554 202.047 263.547 199.402 263.539 C197.493 263.545 195.584 263.551 193.675 263.559 C188.414 263.577 183.153 263.577 177.893 263.573 C172.222 263.573 166.551 263.589 160.88 263.604 C151.038 263.627 141.196 263.638 131.354 263.643 C117.067 263.649 102.781 263.672 88.494 263.699 C65.241 263.743 41.989 263.772 18.736 263.794 C-3.726 263.815 -26.188 263.842 -48.65 263.878 C-49.682 263.88 -49.682 263.88 -50.736 263.881 C-56.967 263.891 -63.198 263.901 -69.429 263.911 C-113.327 263.983 -157.225 264.046 -201.123 264.093 C-204.414 264.096 -207.705 264.1 -210.997 264.103 C-213.088 264.106 -215.179 264.108 -217.27 264.11 C-218.803 264.112 -218.803 264.112 -220.366 264.114 C-225.368 264.119 -230.371 264.123 -235.373 264.126 C-237.342 264.127 -239.311 264.128 -241.28 264.129 C-242.258 264.13 -243.236 264.13 -244.243 264.131 C-250.975 264.135 -257.707 264.15 -264.439 264.169 C-269.308 264.181 -274.178 264.19 -279.047 264.198 C-281.398 264.203 -283.748 264.21 -286.099 264.218 C-289.345 264.23 -292.592 264.236 -295.838 264.24 C-296.815 264.245 -297.791 264.25 -298.797 264.255 C-300.124 264.255 -300.124 264.255 -301.477 264.255 C-302.251 264.257 -303.024 264.259 -303.821 264.261 C-305.586 264.14 -305.586 264.14 -306.586 263.14 C-307.918 263.042 -309.256 263.012 -310.592 263.01 C-311.46 263.007 -312.328 263.003 -313.222 262.999 C-314.187 263 -315.152 263.001 -316.145 263.002 C-317.162 263 -318.178 262.997 -319.225 262.994 C-322.658 262.985 -326.091 262.984 -329.525 262.983 C-331.975 262.978 -334.425 262.973 -336.875 262.967 C-342.165 262.956 -347.454 262.948 -352.744 262.941 C-361.1 262.931 -369.455 262.91 -377.811 262.888 C-380.667 262.881 -383.523 262.873 -386.379 262.866 C-387.45 262.863 -387.45 262.863 -388.542 262.86 C-396.673 262.839 -404.804 262.82 -412.935 262.803 C-413.679 262.801 -414.423 262.799 -415.189 262.798 C-427.244 262.771 -439.3 262.753 -451.355 262.736 C-463.72 262.719 -476.084 262.69 -488.449 262.651 C-496.083 262.628 -503.716 262.614 -511.35 262.612 C-517.195 262.609 -523.039 262.592 -528.884 262.568 C-531.287 262.561 -533.691 262.559 -536.094 262.562 C-539.363 262.566 -542.63 262.552 -545.899 262.532 C-546.861 262.538 -547.823 262.543 -548.815 262.549 C-549.686 262.54 -550.556 262.532 -551.454 262.522 C-552.586 262.52 -552.586 262.52 -553.742 262.518 C-555.586 262.14 -555.586 262.14 -557.586 259.14 C-557.227 256.18 -556.739 255.294 -554.586 253.14 C-551.605 252.822 -551.605 252.822 -547.828 252.726 C-546.833 252.697 -546.833 252.697 -545.819 252.668 C-543.699 252.608 -541.58 252.562 -539.461 252.515 C-538.024 252.477 -536.588 252.438 -535.152 252.398 C-531.63 252.302 -528.108 252.218 -524.586 252.14 C-525.306 251.703 -526.027 251.265 -526.77 250.814 C-532.302 247.386 -537.384 244.028 -541.898 239.328 C-542.4 238.812 -542.902 238.295 -543.42 237.763 C-556.187 224.267 -560.141 207.362 -559.855 189.289 C-559.286 173.96 -551.756 158.411 -541.129 147.418 C-533.322 140.426 -522.636 131.874 -511.886 130.894 C-509.586 131.14 -509.586 131.14 -507.773 133.14 C-507.381 133.8 -506.989 134.46 -506.586 135.14 C-506.935 130.828 -508.263 127.594 -510.148 123.765 C-512.467 118.79 -513.525 115.589 -512.586 110.14 C-510.586 107.14 -510.586 107.14 -507.586 105.14 C-503.409 104.743 -500.455 104.936 -496.398 105.89 C-492.526 106.235 -491.539 104.517 -488.586 102.14 C-485.086 101.578 -485.086 101.578 -481.586 102.14 C-478.955 104.313 -477.112 106.087 -475.586 109.14 C-475.101 108.863 -474.616 108.586 -474.117 108.301 C-469.172 105.628 -465.19 104.541 -459.586 104.14 C-460.2 103.469 -460.2 103.469 -460.828 102.785 C-461.367 102.18 -461.905 101.576 -462.461 100.953 C-462.994 100.361 -463.528 99.77 -464.078 99.16 C-467.801 94.173 -468.142 89.21 -468.023 83.148 C-467.182 77.364 -464.02 73.985 -459.476 70.543 C-454.283 67.14 -454.283 67.14 -451.586 67.14 C-451.632 66.223 -451.678 65.305 -451.726 64.359 C-452.126 50.76 -452.126 50.76 -447.586 45.14 C-443.114 40.616 -439.554 37.022 -433.023 36.828 C-422.452 37.01 -415.737 42.8 -408.586 50.14 C-407.926 51.13 -407.266 52.12 -406.586 53.14 C-405.596 53.47 -404.606 53.8 -403.586 54.14 C-403.544 52.903 -403.503 51.665 -403.461 50.39 C-402.31 40.521 -397.243 32.908 -389.734 26.664 C-383.142 21.989 -375.43 21.965 -367.586 23.14 C-363.928 24.554 -361.389 26.427 -358.586 29.14 C-358.015 29.682 -357.443 30.223 -356.855 30.781 C-352.112 35.794 -348.822 41.772 -348.336 48.703 C-348.418 49.507 -348.501 50.312 -348.586 51.14 C-347.596 51.14 -346.606 51.14 -345.586 51.14 C-345.32 50.542 -345.054 49.944 -344.781 49.328 C-341.597 43.5 -334.809 39.148 -328.586 37.14 C-323.249 36.23 -318.947 36.545 -314.211 39.265 C-309.836 42.376 -307.283 46.048 -305.586 51.14 C-305.56 53.39 -305.54 55.64 -305.523 57.89 C-305.262 63.021 -305.262 63.021 -302.882 67.406 C-301.492 68.549 -300.061 69.646 -298.593 70.687 C-294.895 73.364 -293.021 76.833 -291.586 81.14 C-290.668 90.366 -292.06 97.075 -296.586 105.14 C-295.685 105.094 -294.783 105.048 -293.855 105 C-290.491 105.145 -289.052 105.599 -286.273 107.39 C-285.596 107.808 -284.92 108.226 -284.222 108.656 C-282.586 110.14 -282.586 110.14 -281.586 114.14 C-204.036 114.14 -126.486 114.14 -46.586 114.14 C-46.586 107.21 -46.586 100.28 -46.586 93.14 C-45.109 77.392 -36.15 65.315 -24.273 55.328 C-17.361 50.207 -9.201 46.728 -0.586 46.14 C-0.586 44.49 -0.586 42.84 -0.586 41.14 C-1.189 41.187 -1.792 41.233 -2.414 41.281 C-8.977 41.577 -8.977 41.577 -12.023 39.39 C-14.602 35.677 -15.838 33.035 -15.851 28.472 C-15.854 27.579 -15.856 26.685 -15.859 25.763 C-15.851 24.836 -15.844 23.909 -15.836 22.953 C-15.843 22.045 -15.851 21.137 -15.859 20.201 C-15.843 14.498 -15.753 8.498 -13.586 3.14 C-9.157 0.188 -5.232 0.016 0 0 Z " fill="#2E0708" transform="translate(677.5855865478516,566.8595581054688)"/>
<path d="M0 0 C9.35 3.494 15.361 8.399 19.969 17.281 C22.253 22.296 24.094 26.582 24.094 32.156 C25.744 32.156 27.394 32.156 29.094 32.156 C28.952 29.156 28.805 26.156 28.656 23.156 C28.617 22.317 28.578 21.478 28.537 20.613 C28.335 16.595 28.056 12.645 27.488 8.66 C27.094 5.156 27.094 5.156 28.219 3.094 C30.094 2.156 30.094 2.156 32.594 1.969 C35.522 3.36 35.705 3.929 36.844 6.844 C38.848 12.844 39.235 18.744 39.156 25.031 C39.152 25.72 39.147 26.408 39.143 27.117 C39.131 28.797 39.113 30.477 39.094 32.156 C39.754 32.156 40.414 32.156 41.094 32.156 C41.011 31.187 40.929 30.218 40.844 29.219 C40.844 20.636 46.704 12.597 52.281 6.531 C57.092 1.895 62.597 -0.976 69.344 -1.281 C74.042 -0.733 76.526 0.44 79.699 3.914 C82.408 8.269 81.732 13.226 81.094 18.156 C78.832 25.265 74.655 30.316 69.094 35.156 C70.063 35.672 71.033 36.188 72.031 36.719 C75.094 39.156 75.094 39.156 75.504 42.488 C76.212 46.891 77.456 48.192 80.594 51.281 C95.041 66.445 105.523 85.994 111.094 106.156 C111.422 107.264 111.422 107.264 111.758 108.395 C115.36 121.38 115.49 134.608 115.719 147.969 C115.757 149.837 115.796 151.704 115.836 153.572 C115.931 158.1 116.015 162.628 116.094 167.156 C116.963 166.145 116.963 166.145 117.849 165.114 C125.713 156.139 132.807 150.44 144.98 149.59 C147.101 149.524 149.222 149.483 151.344 149.469 C152.852 149.458 152.852 149.458 154.391 149.447 C165.009 149.707 173.087 153.042 180.754 160.406 C186.798 167.51 191.287 176.03 190.586 185.562 C189.122 193.276 185.676 198.924 181.094 205.156 C181.871 205.176 182.648 205.196 183.449 205.216 C186.956 205.311 190.462 205.421 193.969 205.531 C195.192 205.562 196.415 205.593 197.676 205.625 C198.842 205.664 200.009 205.702 201.211 205.742 C202.29 205.774 203.369 205.805 204.48 205.837 C207.094 206.156 207.094 206.156 209.094 208.156 C208.969 211.156 208.969 211.156 208.094 214.156 C205.042 216.227 202.478 216.407 198.849 216.408 C197.782 216.413 196.714 216.418 195.613 216.424 C194.441 216.419 193.269 216.415 192.061 216.41 C190.192 216.415 190.192 216.415 188.285 216.42 C184.824 216.426 181.363 216.424 177.903 216.418 C174.171 216.413 170.44 216.42 166.708 216.426 C159.397 216.435 152.087 216.433 144.776 216.427 C138.835 216.422 132.895 216.422 126.954 216.424 C126.11 216.424 125.265 216.424 124.395 216.425 C122.678 216.425 120.962 216.426 119.246 216.427 C103.147 216.432 87.047 216.426 70.948 216.415 C57.127 216.406 43.306 216.408 29.486 216.417 C13.445 216.428 -2.596 216.432 -18.638 216.426 C-20.347 216.425 -22.057 216.425 -23.767 216.424 C-24.608 216.424 -25.45 216.423 -26.316 216.423 C-32.251 216.421 -38.186 216.424 -44.121 216.429 C-51.351 216.434 -58.582 216.433 -65.812 216.422 C-69.503 216.417 -73.193 216.415 -76.884 216.422 C-80.88 216.429 -84.877 216.42 -88.873 216.41 C-90.046 216.415 -91.218 216.419 -92.426 216.424 C-94.028 216.416 -94.028 216.416 -95.662 216.408 C-96.585 216.408 -97.508 216.407 -98.458 216.407 C-101.101 216.136 -102.71 215.646 -104.906 214.156 C-105.781 211.156 -105.781 211.156 -105.906 208.156 C-103.906 206.156 -103.906 206.156 -101.502 205.916 C-99.99 205.922 -99.99 205.922 -98.447 205.929 C-97.306 205.929 -96.165 205.93 -94.989 205.93 C-93.134 205.945 -93.134 205.945 -91.242 205.961 C-89.349 205.965 -89.349 205.965 -87.417 205.97 C-84.06 205.979 -80.703 205.997 -77.346 206.019 C-73.921 206.039 -70.496 206.049 -67.07 206.059 C-60.349 206.081 -53.628 206.114 -46.906 206.156 C-47.521 205.269 -47.521 205.269 -48.148 204.363 C-48.957 203.178 -48.957 203.178 -49.781 201.969 C-50.315 201.191 -50.849 200.414 -51.398 199.613 C-56.708 190.961 -56.055 181.672 -56.039 171.855 C-56.04 170.583 -56.041 169.31 -56.042 167.999 C-56.043 165.318 -56.041 162.638 -56.037 159.958 C-56.031 156.52 -56.034 153.082 -56.04 149.645 C-56.045 146.361 -56.042 143.077 -56.039 139.793 C-56.041 138.557 -56.043 137.32 -56.045 136.046 C-56.04 134.339 -56.04 134.339 -56.036 132.596 C-56.035 131.592 -56.034 130.587 -56.033 129.552 C-55.906 127.156 -55.906 127.156 -54.906 125.156 C-54.609 123.431 -54.344 121.701 -54.094 119.969 C-49.742 93.51 -37.195 66.211 -17.318 47.675 C-15.606 46.019 -15.606 46.019 -14.531 42.656 C-12.764 38.85 -11.685 37.803 -7.906 36.156 C-7.246 36.156 -6.586 36.156 -5.906 36.156 C-5.906 35.496 -5.906 34.836 -5.906 34.156 C-6.491 33.915 -7.077 33.674 -7.68 33.426 C-10.333 31.913 -11.683 30.267 -13.531 27.844 C-14.417 26.705 -14.417 26.705 -15.32 25.543 C-19.032 19.957 -19.772 14.742 -18.906 8.156 C-14.542 -0.417 -9.111 -2.645 0 0 Z " fill="#FDBE90" transform="translate(279.90625,224.84375)"/>
<path d="M0 0 C1.223 -0.002 2.445 -0.005 3.705 -0.007 C6.285 -0.006 8.864 0.007 11.444 0.032 C15.392 0.066 19.338 0.053 23.287 0.033 C25.796 0.04 28.304 0.05 30.812 0.062 C31.993 0.058 33.173 0.053 34.389 0.047 C42.558 0.165 42.558 0.165 46.56 2.539 C49.867 6.422 49.591 9.978 49.652 14.879 C49.681 15.63 49.71 16.382 49.74 17.156 C49.801 22.474 48.797 25.372 45.34 29.629 C43.008 31.961 37.401 31.156 34.246 31.348 C31.449 31.308 31.449 31.308 30.34 32.629 C28.654 32.701 26.965 32.713 25.277 32.691 C24.358 32.682 23.439 32.673 22.492 32.664 C21.782 32.652 21.072 32.641 20.34 32.629 C20.154 34.3 20.154 34.3 19.965 36.004 C19.34 39.629 19.34 39.629 17.34 41.629 C12.784 41.073 12.784 41.073 11.34 39.629 C11.199 36.958 11.297 34.305 11.34 31.629 C5.66 33.133 1.327 35.995 -3.473 39.254 C-4.274 39.797 -5.076 40.339 -5.902 40.898 C-19.91 50.502 -29.937 61.845 -36.66 77.629 C-37.062 78.518 -37.465 79.408 -37.879 80.324 C-42.56 92.596 -41.154 103.969 -41.66 117.629 C-5.69 117.629 30.28 117.629 67.34 117.629 C66.337 87.531 63.864 69.687 43.473 49.535 C41.202 47.506 38.816 45.774 36.34 44.004 C32.43 41.063 32.43 41.063 31.652 37.316 C32.34 34.629 32.34 34.629 34.34 32.629 C43.194 33.237 51.027 42.799 56.887 48.797 C69.65 63.532 76.611 80.881 77.027 100.316 C77.062 101.411 77.096 102.507 77.131 103.635 C77.212 106.299 77.282 108.964 77.34 111.629 C77.778 111.125 78.217 110.62 78.669 110.101 C83.934 104.063 89.3 98.14 94.785 92.301 C96.315 90.656 97.814 88.986 99.312 87.312 C100.258 86.292 101.205 85.272 102.152 84.254 C102.984 83.339 103.815 82.423 104.672 81.48 C107.34 79.629 107.34 79.629 110.926 79.621 C114.432 80.656 115.789 81.428 118.152 84.129 C120.447 86.766 120.447 86.766 123.34 88.629 C123.711 86.773 123.711 86.773 124.09 84.879 C124.97 80.969 126.022 77.143 127.215 73.316 C127.675 71.837 127.675 71.837 128.145 70.328 C129.478 67.316 130.783 65.691 133.34 63.629 C136.821 62.417 140.196 62.515 143.855 62.531 C145.731 62.536 145.731 62.536 147.645 62.541 C149.597 62.554 149.597 62.554 151.59 62.566 C152.907 62.571 154.225 62.575 155.582 62.58 C158.835 62.592 162.087 62.608 165.34 62.629 C165.529 61.715 165.529 61.715 165.722 60.783 C165.894 59.979 166.065 59.176 166.242 58.348 C166.41 57.553 166.577 56.758 166.75 55.939 C167.605 52.591 168.855 49.114 171.34 46.629 C174.59 46.066 174.59 46.066 178.34 46.629 C183.107 51.852 185.626 59.438 188.277 65.879 C188.71 66.922 189.142 67.965 189.588 69.04 C194.863 82.028 200.48 96.165 200.453 110.347 C200.454 111.001 200.454 111.655 200.454 112.329 C200.453 114.477 200.445 116.625 200.438 118.773 C200.436 120.268 200.434 121.763 200.433 123.258 C200.429 127.183 200.42 131.107 200.409 135.031 C200.398 139.039 200.394 143.048 200.389 147.057 C200.378 154.914 200.361 162.771 200.34 170.629 C201.263 170.613 202.187 170.597 203.138 170.581 C206.565 170.53 209.992 170.493 213.42 170.464 C214.903 170.449 216.386 170.429 217.869 170.403 C220.001 170.366 222.133 170.349 224.266 170.336 C226.19 170.312 226.19 170.312 228.154 170.288 C231.34 170.629 231.34 170.629 233.286 171.987 C234.34 173.629 234.34 173.629 234.277 176.191 C233.34 178.629 233.34 178.629 231.615 179.765 C228.933 180.783 226.87 180.882 224.002 180.886 C222.913 180.893 221.824 180.899 220.702 180.906 C218.909 180.901 218.909 180.901 217.079 180.896 C215.808 180.901 214.538 180.905 213.229 180.91 C209.7 180.922 206.171 180.922 202.641 180.92 C198.836 180.919 195.031 180.93 191.226 180.94 C183.771 180.956 176.316 180.962 168.861 180.963 C162.803 180.964 156.745 180.968 150.687 180.974 C133.521 180.992 116.355 181.001 99.189 181 C98.264 181 97.338 181 96.384 181 C95.458 180.999 94.531 180.999 93.576 180.999 C78.547 180.998 63.519 181.018 48.49 181.046 C33.068 181.074 17.645 181.088 2.223 181.087 C-6.439 181.086 -15.101 181.091 -23.764 181.113 C-31.137 181.131 -38.51 181.136 -45.883 181.122 C-49.647 181.115 -53.41 181.115 -57.173 181.133 C-61.249 181.151 -65.324 181.139 -69.399 181.123 C-70.595 181.134 -71.791 181.144 -73.023 181.155 C-74.656 181.141 -74.656 181.141 -76.322 181.127 C-77.263 181.127 -78.204 181.128 -79.174 181.128 C-82.426 180.475 -83.65 179.218 -85.66 176.629 C-85.535 173.941 -85.535 173.941 -84.66 171.629 C-82.4 170.499 -81.089 170.476 -78.578 170.424 C-77.737 170.404 -76.896 170.384 -76.03 170.363 C-74.667 170.338 -74.667 170.338 -73.277 170.312 C-72.348 170.292 -71.419 170.271 -70.461 170.25 C-67.486 170.184 -64.51 170.125 -61.535 170.066 C-59.521 170.023 -57.507 169.98 -55.492 169.936 C-50.548 169.828 -45.604 169.727 -40.66 169.629 C-41.06 169.191 -41.461 168.753 -41.873 168.301 C-52.947 155.848 -52.427 141.726 -52.257 125.863 C-52.223 122.334 -52.236 118.808 -52.256 115.279 C-52.237 85.811 -44.287 62.952 -23.39 41.978 C-19.738 38.431 -15.859 35.508 -11.66 32.629 C-12.836 31.732 -12.836 31.732 -14.035 30.816 C-16.678 28.614 -18.446 27.023 -18.982 23.532 C-19.073 20.939 -19.131 18.349 -19.16 15.754 C-19.201 14.855 -19.243 13.957 -19.285 13.031 C-19.301 11.722 -19.301 11.722 -19.316 10.387 C-19.344 9.198 -19.344 9.198 -19.373 7.985 C-18.5 5.101 -17.153 3.433 -14.754 1.617 C-10.157 -0.553 -4.98 -0.056 0 0 Z " fill="#2E0708" transform="translate(662.66015625,260.37109375)"/>
<path d="M0 0 C9.35 3.494 15.361 8.399 19.969 17.281 C22.253 22.296 24.094 26.582 24.094 32.156 C25.744 32.156 27.394 32.156 29.094 32.156 C28.952 29.156 28.805 26.156 28.656 23.156 C28.617 22.317 28.578 21.478 28.537 20.613 C28.335 16.595 28.056 12.645 27.488 8.66 C27.094 5.156 27.094 5.156 28.219 3.094 C30.094 2.156 30.094 2.156 32.594 1.969 C35.522 3.36 35.705 3.929 36.844 6.844 C38.848 12.844 39.235 18.744 39.156 25.031 C39.152 25.72 39.147 26.408 39.143 27.117 C39.131 28.797 39.113 30.477 39.094 32.156 C39.754 32.156 40.414 32.156 41.094 32.156 C41.011 31.187 40.929 30.218 40.844 29.219 C40.844 20.636 46.704 12.597 52.281 6.531 C57.092 1.895 62.597 -0.976 69.344 -1.281 C74.042 -0.733 76.526 0.44 79.699 3.914 C82.408 8.269 81.732 13.226 81.094 18.156 C78.832 25.265 74.655 30.316 69.094 35.156 C70.063 35.672 71.033 36.188 72.031 36.719 C75.094 39.156 75.094 39.156 75.504 42.488 C76.212 46.891 77.456 48.192 80.594 51.281 C95.041 66.445 105.523 85.994 111.094 106.156 C111.422 107.264 111.422 107.264 111.758 108.395 C115.36 121.38 115.49 134.608 115.719 147.969 C115.757 149.837 115.796 151.704 115.836 153.572 C115.931 158.1 116.015 162.628 116.094 167.156 C116.963 166.145 116.963 166.145 117.849 165.114 C125.713 156.139 132.807 150.44 144.98 149.59 C147.101 149.524 149.222 149.483 151.344 149.469 C152.852 149.458 152.852 149.458 154.391 149.447 C165.009 149.707 173.087 153.042 180.754 160.406 C186.798 167.51 191.287 176.03 190.586 185.562 C189.122 193.276 185.676 198.924 181.094 205.156 C181.871 205.176 182.648 205.196 183.449 205.216 C186.956 205.311 190.462 205.421 193.969 205.531 C195.192 205.562 196.415 205.593 197.676 205.625 C198.842 205.664 200.009 205.702 201.211 205.742 C202.29 205.774 203.369 205.805 204.48 205.837 C207.094 206.156 207.094 206.156 209.094 208.156 C208.969 211.156 208.969 211.156 208.094 214.156 C205.042 216.227 202.478 216.407 198.849 216.408 C197.782 216.413 196.714 216.418 195.613 216.424 C194.441 216.419 193.269 216.415 192.061 216.41 C190.192 216.415 190.192 216.415 188.285 216.42 C184.824 216.426 181.363 216.424 177.903 216.418 C174.171 216.413 170.44 216.42 166.708 216.426 C159.397 216.435 152.087 216.433 144.776 216.427 C138.835 216.422 132.895 216.422 126.954 216.424 C126.11 216.424 125.265 216.424 124.395 216.425 C122.678 216.425 120.962 216.426 119.246 216.427 C103.147 216.432 87.047 216.426 70.948 216.415 C57.127 216.406 43.306 216.408 29.486 216.417 C13.445 216.428 -2.596 216.432 -18.638 216.426 C-20.347 216.425 -22.057 216.425 -23.767 216.424 C-24.608 216.424 -25.45 216.423 -26.316 216.423 C-32.251 216.421 -38.186 216.424 -44.121 216.429 C-51.351 216.434 -58.582 216.433 -65.812 216.422 C-69.503 216.417 -73.193 216.415 -76.884 216.422 C-80.88 216.429 -84.877 216.42 -88.873 216.41 C-90.046 216.415 -91.218 216.419 -92.426 216.424 C-94.028 216.416 -94.028 216.416 -95.662 216.408 C-96.585 216.408 -97.508 216.407 -98.458 216.407 C-101.101 216.136 -102.71 215.646 -104.906 214.156 C-105.781 211.156 -105.781 211.156 -105.906 208.156 C-103.906 206.156 -103.906 206.156 -101.502 205.916 C-99.99 205.922 -99.99 205.922 -98.447 205.929 C-97.306 205.929 -96.165 205.93 -94.989 205.93 C-93.134 205.945 -93.134 205.945 -91.242 205.961 C-89.349 205.965 -89.349 205.965 -87.417 205.97 C-84.06 205.979 -80.703 205.997 -77.346 206.019 C-73.921 206.039 -70.496 206.049 -67.07 206.059 C-60.349 206.081 -53.628 206.114 -46.906 206.156 C-47.521 205.269 -47.521 205.269 -48.148 204.363 C-48.957 203.178 -48.957 203.178 -49.781 201.969 C-50.315 201.191 -50.849 200.414 -51.398 199.613 C-56.708 190.961 -56.055 181.672 -56.039 171.855 C-56.04 170.583 -56.041 169.31 -56.042 167.999 C-56.043 165.318 -56.041 162.638 -56.037 159.958 C-56.031 156.52 -56.034 153.082 -56.04 149.645 C-56.045 146.361 -56.042 143.077 -56.039 139.793 C-56.041 138.557 -56.043 137.32 -56.045 136.046 C-56.04 134.339 -56.04 134.339 -56.036 132.596 C-56.035 131.592 -56.034 130.587 -56.033 129.552 C-55.906 127.156 -55.906 127.156 -54.906 125.156 C-54.609 123.431 -54.344 121.701 -54.094 119.969 C-49.742 93.51 -37.195 66.211 -17.318 47.675 C-15.606 46.019 -15.606 46.019 -14.531 42.656 C-12.764 38.85 -11.685 37.803 -7.906 36.156 C-7.246 36.156 -6.586 36.156 -5.906 36.156 C-5.906 35.496 -5.906 34.836 -5.906 34.156 C-6.491 33.915 -7.077 33.674 -7.68 33.426 C-10.333 31.913 -11.683 30.267 -13.531 27.844 C-14.417 26.705 -14.417 26.705 -15.32 25.543 C-19.032 19.957 -19.772 14.742 -18.906 8.156 C-14.542 -0.417 -9.111 -2.645 0 0 Z M19.094 42.156 C17.223 42.001 15.352 41.846 13.482 41.683 C7.062 41.252 2.113 41.251 -2.933 45.58 C-4.919 47.537 -6.803 49.554 -8.62 51.669 C-9.79 53.022 -11.036 54.309 -12.289 55.586 C-25.193 68.939 -35.245 86.599 -41.281 104.094 C-41.508 104.735 -41.734 105.377 -41.968 106.038 C-47.063 121.89 -47.387 138.114 -47.297 154.609 C-47.281 158.178 -47.297 161.747 -47.316 165.316 C-47.314 167.617 -47.311 169.918 -47.305 172.219 C-47.311 173.27 -47.317 174.321 -47.323 175.404 C-47.235 184.769 -45.882 193.43 -39.058 200.254 C-31.955 206.532 -24.585 207.888 -15.373 207.727 C-13.712 207.728 -13.712 207.728 -12.018 207.729 C-8.387 207.724 -4.756 207.682 -1.125 207.637 C1.415 207.62 3.955 207.605 6.495 207.591 C11.808 207.556 17.12 207.503 22.432 207.436 C28.55 207.359 34.667 207.322 40.785 207.305 C46.702 207.288 52.617 207.237 58.533 207.172 C61.037 207.149 63.541 207.134 66.045 207.129 C69.551 207.117 73.055 207.068 76.561 207.009 C77.584 207.013 78.608 207.017 79.663 207.022 C87.071 206.839 92.254 204.745 98.094 200.156 C103.152 194.761 105.329 189.178 105.4 181.863 C105.416 180.61 105.432 179.357 105.449 178.066 C105.455 176.7 105.46 175.334 105.465 173.969 C105.474 172.546 105.483 171.124 105.492 169.702 C105.509 166.713 105.516 163.724 105.519 160.734 C105.524 157.711 105.544 154.688 105.581 151.664 C106.011 115.585 98.354 85.802 74.574 57.9 C73.566 56.712 72.573 55.511 71.594 54.299 C65.091 46.114 65.091 46.114 55.781 42.16 C51.864 41.811 48.017 41.986 44.094 42.156 C43.104 41.661 43.104 41.661 42.094 41.156 C40.523 41.061 38.949 41.026 37.375 41.023 C35.977 41.022 35.977 41.022 34.551 41.02 C33.087 41.025 33.087 41.025 31.594 41.031 C30.13 41.025 30.13 41.025 28.637 41.02 C27.705 41.021 26.773 41.022 25.812 41.023 C24.956 41.025 24.099 41.026 23.217 41.027 C21.039 41.02 21.039 41.02 19.094 42.156 Z " fill="#2E0708" transform="translate(279.90625,224.84375)"/>
<path d="M0 0 C9.848 0 17.848 7.169 24.68 13.594 C36.571 25.926 40.532 40.455 40.277 57.09 C39.743 70.941 33.016 83.692 23.617 93.645 C9.181 106.637 -6.672 110.012 -25.405 109.222 C-39.162 108.044 -51.436 99.462 -60.711 89.73 C-71.062 77.383 -75.197 63.836 -74.18 47.991 C-72.779 32.513 -65.067 20.378 -54 10 C-43.308 1.431 -43.308 1.431 -37.125 0.625 C-34 1 -34 1 -31.395 2.996 C-26.944 5.624 -23.624 5.56 -18.562 5.438 C-17.332 5.448 -17.332 5.448 -16.076 5.459 C-9.887 5.395 -4.556 4.556 0 0 Z " fill="#9DBB43" transform="translate(201,708)"/>
<path d="M0 0 C12.427 2.39 23.45 10.936 30.941 20.867 C39.039 33.247 40.973 46.95 38.062 61.25 C35.257 72.123 30.592 81.011 20.863 87.125 C15.248 90.087 9.401 92.095 3.25 93.625 C2.581 93.798 1.911 93.97 1.222 94.148 C-3.06 94.835 -7.294 94.808 -11.625 94.828 C-12.586 94.834 -13.547 94.84 -14.537 94.845 C-16.571 94.855 -18.605 94.861 -20.639 94.865 C-23.712 94.875 -26.783 94.906 -29.855 94.938 C-48.325 95.038 -63.6 93.182 -77.555 79.949 C-85.359 71.687 -88.325 62.037 -88.188 50.812 C-88.18 49.937 -88.172 49.062 -88.165 48.161 C-87.796 33.62 -81.637 21.666 -71.199 11.672 C-65.127 6.597 -58.405 2.062 -50.336 2.062 C-45.974 3.011 -43.168 5.849 -39.914 8.777 C-34.666 13.258 -26.398 12.194 -19.822 11.852 C-14.483 11.268 -9.836 8.944 -6.25 4.957 C-5.837 4.414 -5.425 3.872 -5 3.312 C-2.75 0.625 -2.75 0.625 0 0 Z " fill="#F74B32" transform="translate(420.75,726.375)"/>
<path d="M0 0 C64.35 0 128.7 0 195 0 C195 14.52 195 29.04 195 44 C172.321 44.09 149.642 44.164 126.963 44.207 C116.432 44.228 105.902 44.256 95.372 44.302 C86.192 44.342 77.013 44.367 67.833 44.376 C62.974 44.382 58.115 44.394 53.255 44.423 C48.678 44.45 44.102 44.458 39.525 44.452 C37.848 44.454 36.171 44.461 34.494 44.477 C24.409 44.565 16.094 44.452 8.312 37.062 C-1.5 26.349 0 14.285 0 0 Z " fill="#FCA04E" transform="translate(620,387)"/>
<path d="M0 0 C6.441 2.707 10.248 6.776 13.105 13.074 C14.154 16.502 14.44 19.745 14.75 23.312 C15.182 28.204 15.182 28.204 18.047 31.934 C20.327 33.157 22.586 34.081 25 35 C27 37 27 37 27.402 39.348 C26.726 43.809 23.333 45.763 20.066 48.621 C17.594 51.467 17.118 53.261 17 57 C17.66 57.66 18.32 58.32 19 59 C22.432 58.675 24.18 57.195 26.625 54.875 C31.131 50.79 35.927 47.345 41 44 C41.928 43.361 42.856 42.721 43.812 42.062 C50.186 39.938 57.212 40.071 63.562 42.188 C67.34 44.996 69.612 46.767 70.453 51.605 C70.919 59.788 68.527 65.303 64 72 C63.439 72.619 62.879 73.237 62.301 73.875 C60.391 76.58 60.391 76.58 61 83 C20.41 83 -20.18 83 -62 83 C-62.33 80.69 -62.66 78.38 -63 76 C-64.428 74.346 -64.428 74.346 -66.422 73.488 C-67.466 72.94 -67.466 72.94 -68.531 72.381 C-69.263 72.028 -69.996 71.676 -70.75 71.312 C-72.184 70.584 -73.617 69.851 -75.047 69.113 C-75.728 68.763 -76.409 68.413 -77.111 68.052 C-81.613 65.545 -84.867 62.716 -87 58 C-87.692 53.937 -87.25 52.403 -85.062 48.875 C-82.233 45.777 -78.949 44.362 -75.086 42.859 C-72.757 41.98 -72.757 41.98 -70 40 C-69.854 36.233 -69.984 32.586 -70.205 28.828 C-70.389 23.386 -69.833 20.217 -66 16 C-63.017 14.666 -60.232 14.687 -57 15 C-51.101 17.38 -45.677 21.77 -42 27 C-42.232 30.033 -43.671 32.394 -45.062 35.062 C-49.613 45.313 -46.374 55.832 -43 66 C-41.811 68.811 -40.517 71.346 -39 74 C-35.709 73.621 -35.709 73.621 -33 72 C-33.271 67.12 -34.199 63.327 -36.062 58.812 C-38.85 51.48 -39.527 43.886 -36.625 36.5 C-33.434 33.461 -30.158 31.841 -26.145 30.078 C-23.846 29.19 -23.846 29.19 -23 27 C-22.871 25.293 -22.771 23.584 -22.688 21.875 C-21.992 14.038 -19.749 9.318 -13.875 4.062 C-9.394 0.351 -5.9 -1.017 0 0 Z " fill="#41875A" transform="translate(306,599)"/>
<path d="M0 0 C2.062 0.438 2.062 0.438 4 1 C3.34 1.99 2.68 2.98 2 4 C1.422 6.944 1.422 6.944 2 10 C4.078 12.367 4.078 12.367 6.938 14.312 C21.334 25.405 31.526 39.106 36 57 C36 66.9 36 76.8 36 87 C0.03 87 -35.94 87 -73 87 C-73 55.385 -73 55.385 -69 47 C-68.737 46.419 -68.474 45.839 -68.203 45.24 C-60.141 27.665 -47.842 15.606 -31.445 5.543 C-28.994 4.055 -28.994 4.055 -26.852 2.312 C-24.464 0.62 -22.86 0.762 -20 1 C-19.505 4.96 -19.505 4.96 -19 9 C-16.525 9.495 -16.525 9.495 -14 10 C-12.055 7.082 -11.547 5.375 -11 2 C-10.29 1.939 -9.579 1.879 -8.848 1.816 C-7.469 1.691 -7.469 1.691 -6.062 1.562 C-5.146 1.481 -4.229 1.4 -3.285 1.316 C-1.038 1.24 -1.038 1.24 0 0 Z " fill="#FEB349" transform="translate(694,291)"/>
<path d="M0 0 C9.008 6.122 14.876 12.137 20.25 21.688 C20.687 22.407 21.124 23.126 21.574 23.867 C25.58 31.317 25.28 40.094 23.777 48.254 C22.28 52.979 19.503 56.249 15.25 58.688 C12.319 59.378 9.495 59.362 6.494 59.319 C5.635 59.326 4.776 59.333 3.89 59.34 C1.062 59.357 -1.765 59.338 -4.594 59.316 C-6.566 59.317 -8.539 59.32 -10.511 59.324 C-14.64 59.327 -18.769 59.312 -22.898 59.284 C-28.184 59.25 -33.469 59.256 -38.756 59.275 C-42.827 59.286 -46.899 59.277 -50.97 59.262 C-52.919 59.257 -54.868 59.257 -56.817 59.263 C-59.543 59.269 -62.268 59.248 -64.994 59.221 C-65.795 59.227 -66.597 59.234 -67.422 59.241 C-72.639 59.152 -75.589 58.102 -79.75 54.688 C-84.373 48.556 -84.676 41.057 -83.75 33.688 C-80.372 19.797 -71.917 7.957 -59.812 0.375 C-41.133 -10.116 -18.595 -11.218 0 0 Z " fill="#96191D" transform="translate(339.75,349.3125)"/>
<path d="M0 0 C10.93 6.334 18.054 14.964 21.827 27.061 C22.412 29.952 22.397 32.671 22.383 35.621 C22.378 37.429 22.378 37.429 22.373 39.273 C22.36 41.155 22.36 41.155 22.348 43.074 C22.343 44.344 22.339 45.614 22.334 46.922 C22.322 50.056 22.306 53.19 22.285 56.324 C11.35 56.347 0.415 56.365 -10.52 56.376 C-15.597 56.381 -20.674 56.388 -25.751 56.4 C-30.646 56.41 -35.541 56.416 -40.437 56.419 C-42.309 56.421 -44.181 56.425 -46.053 56.43 C-48.665 56.437 -51.278 56.438 -53.89 56.438 C-54.672 56.441 -55.454 56.445 -56.26 56.449 C-61.601 56.438 -61.601 56.438 -62.715 55.324 C-63.647 37.905 -62.161 24.051 -50.902 10.074 C-38.776 -3.265 -16.506 -7.455 0 0 Z " fill="#FDBE90" transform="translate(702.71484375,625.67578125)"/>
<path d="M0 0 C1.994 1.434 3.834 2.937 5.664 4.574 C6.53 5.337 7.397 6.1 8.289 6.887 C20.874 21.128 19.664 33.517 19.664 53.574 C-6.736 53.574 -33.136 53.574 -60.336 53.574 C-60.336 17.123 -60.336 17.123 -47.457 3.602 C-34.789 -8.452 -14.74 -8.997 0 0 Z " fill="#FDBE90" transform="translate(795.3359375,628.42578125)"/>
<path d="M0 0 C14.19 0 28.38 0 43 0 C43 27.72 43 55.44 43 84 C28.81 84 14.62 84 0 84 C0 56.28 0 28.56 0 0 Z " fill="#F74B32" transform="translate(568,735)"/>
<path d="M0 0 C2.158 2.071 3.69 4.253 5.359 6.73 C8.14 10.578 11.291 12.562 16.078 13.336 C19.181 13.485 21.614 13.178 24.438 11.875 C26.532 9.362 26.715 7.209 27 4 C32.343 4.324 35.561 7.162 39 11 C44.163 18.169 45.268 25.332 44 34 C40.832 45.17 35.585 51.896 25.66 57.641 C19.131 60.977 14.092 62.584 6.812 62.562 C5.56 62.559 5.56 62.559 4.282 62.555 C-3.225 62.333 -8.801 60.301 -15 56 C-15.695 55.532 -16.39 55.064 -17.105 54.582 C-21.886 50.943 -24.41 46.335 -27 41 C-27.366 40.407 -27.732 39.814 -28.109 39.203 C-30.586 33.077 -29.925 24.297 -28.16 18.008 C-24.848 10.848 -19.548 5.468 -13.125 1 C-8.613 -0.444 -4.645 -1.302 0 0 Z " fill="#FDBE90" transform="translate(841,758)"/>
<path d="M0 0 C12.54 0 25.08 0 38 0 C38 27.72 38 55.44 38 84 C25.46 84 12.92 84 0 84 C0 56.28 0 28.56 0 0 Z " fill="#F74B32" transform="translate(522,735)"/>
<path d="M0 0 C12.21 0 24.42 0 37 0 C37 10.706 36.944 21.355 36.598 32.047 C36.555 33.401 36.513 34.754 36.47 36.108 C36.382 38.905 36.292 41.701 36.2 44.497 C36.084 48.071 35.973 51.645 35.864 55.219 C35.779 57.997 35.69 60.775 35.599 63.552 C35.536 65.507 35.477 67.462 35.418 69.417 C35.378 70.603 35.338 71.789 35.297 73.011 C35.264 74.05 35.231 75.089 35.196 76.159 C35 79 35 79 34 84 C22.78 84 11.56 84 0 84 C0 56.28 0 28.56 0 0 Z " fill="#F74B32" transform="translate(620,735)"/>
<path d="M0 0 C1.603 -0.004 1.603 -0.004 3.238 -0.009 C4.42 -0.007 5.603 -0.004 6.821 -0.002 C8.058 -0.004 9.295 -0.006 10.57 -0.008 C13.973 -0.011 17.376 -0.011 20.779 -0.007 C24.332 -0.005 27.886 -0.007 31.439 -0.009 C37.408 -0.011 43.377 -0.008 49.346 -0.003 C56.256 0.002 63.166 0 70.076 -0.005 C75.999 -0.01 81.922 -0.01 87.844 -0.008 C91.386 -0.006 94.928 -0.006 98.47 -0.009 C102.416 -0.013 106.363 -0.008 110.309 -0.002 C112.083 -0.005 112.083 -0.005 113.892 -0.009 C115.495 -0.004 115.495 -0.004 117.13 0 C118.064 0 118.999 0.001 119.961 0.001 C122.065 0.127 122.065 0.127 123.065 1.127 C123.219 3.498 123.287 5.876 123.315 8.252 C123.354 10.205 123.354 10.205 123.393 12.197 C123.025 16.604 121.876 19.144 120.065 23.127 C103.784 23.15 87.504 23.168 71.223 23.179 C63.664 23.184 56.105 23.191 48.546 23.202 C41.96 23.212 35.374 23.219 28.788 23.221 C25.299 23.222 21.81 23.225 18.32 23.233 C14.431 23.241 10.542 23.241 6.653 23.241 C5.488 23.244 4.323 23.248 3.122 23.251 C1.542 23.249 1.542 23.249 -0.069 23.247 C-1.451 23.249 -1.451 23.249 -2.86 23.25 C-4.935 23.127 -4.935 23.127 -5.935 22.127 C-6.034 20.577 -6.066 19.023 -6.068 17.471 C-6.069 16.531 -6.07 15.591 -6.072 14.623 C-6.068 13.634 -6.064 12.646 -6.06 11.627 C-6.064 10.638 -6.068 9.65 -6.072 8.631 C-6.07 7.691 -6.069 6.751 -6.068 5.783 C-6.067 4.915 -6.065 4.047 -6.064 3.152 C-5.81 -0.83 -3.438 0.001 0 0 Z " fill="#FCA04E" transform="translate(676.9349365234375,575.8730163574219)"/>
<path d="M0 0 C3 1 3 1 3.996 2.664 C4.283 3.382 4.571 4.1 4.867 4.84 C5.193 5.647 5.519 6.455 5.855 7.287 C6.192 8.161 6.528 9.036 6.875 9.938 C7.225 10.83 7.575 11.723 7.936 12.643 C12.715 25.114 17.139 38.279 17.114 51.74 C17.114 52.384 17.114 53.029 17.114 53.693 C17.113 55.803 17.106 57.913 17.098 60.023 C17.096 61.495 17.094 62.966 17.093 64.437 C17.09 68.294 17.08 72.15 17.069 76.007 C17.057 80.643 17.052 85.278 17.046 89.914 C17.037 96.943 17.017 103.971 17 111 C7.1 111 -2.8 111 -13 111 C-13.127 103.206 -13.247 95.416 -13.311 87.622 C-13.342 83.99 -13.383 80.359 -13.453 76.727 C-13.796 58.257 -12.543 41.802 -7 24 C-6.611 22.635 -6.227 21.268 -5.85 19.898 C-4.979 16.753 -4.064 13.626 -3.125 10.5 C-2.818 9.464 -2.511 8.427 -2.195 7.359 C-1.468 4.905 -0.736 2.452 0 0 Z " fill="#35181E" transform="translate(837,322)"/>
<path d="M0 0 C27.06 0 54.12 0 82 0 C82 11.22 82 22.44 82 34 C69.46 34 56.92 34 44 34 C43.67 23.44 43.34 12.88 43 2 C41.02 2.33 39.04 2.66 37 3 C35.577 5.845 35.78 8.362 35.684 11.539 C35.645 12.712 35.607 13.884 35.568 15.092 C35.525 16.588 35.482 18.084 35.438 19.625 C35.293 24.369 35.149 29.112 35 34 C23.45 34 11.9 34 0 34 C0 22.78 0 11.56 0 0 Z " fill="#FEFEFE" transform="translate(478,692)"/>
<path d="M0 0 C0.66 0.66 1.32 1.32 2 2 C7.482 2.442 9.684 2.423 14 -1 C20.073 -0.269 25.658 2.499 29.844 6.969 C35.178 13.976 36.963 19.111 36 28 C34.167 34.684 29.634 39.201 24 43 C15.056 48.067 6.401 49.633 -3.691 47.406 C-11.192 44.871 -17.997 39.672 -22.293 32.988 C-24.847 27.076 -25.302 20.416 -23.004 14.387 C-18.67 6.297 -9.837 -2.775 0 0 Z " fill="#FCA04E" transform="translate(425,385)"/>
<path d="M0 0 C9.008 6.122 14.876 12.137 20.25 21.688 C20.687 22.407 21.124 23.126 21.574 23.867 C25.58 31.317 25.28 40.094 23.777 48.254 C22.28 52.979 19.503 56.249 15.25 58.688 C12.319 59.378 9.495 59.362 6.494 59.319 C5.635 59.326 4.776 59.333 3.89 59.34 C1.062 59.357 -1.765 59.338 -4.594 59.316 C-6.566 59.317 -8.539 59.32 -10.511 59.324 C-14.64 59.327 -18.769 59.312 -22.898 59.284 C-28.184 59.25 -33.469 59.256 -38.756 59.275 C-42.827 59.286 -46.899 59.277 -50.97 59.262 C-52.919 59.257 -54.868 59.257 -56.817 59.263 C-59.543 59.269 -62.268 59.248 -64.994 59.221 C-65.795 59.227 -66.597 59.234 -67.422 59.241 C-72.639 59.152 -75.589 58.102 -79.75 54.688 C-84.373 48.556 -84.676 41.057 -83.75 33.688 C-80.372 19.797 -71.917 7.957 -59.812 0.375 C-41.133 -10.116 -18.595 -11.218 0 0 Z M-65.625 15.5 C-71.455 22.69 -74.86 30.384 -75 39.625 C-75.026 40.645 -75.052 41.664 -75.078 42.715 C-74.682 46.308 -74.088 47.915 -71.75 50.688 C-68.861 51.202 -66.549 51.372 -63.654 51.334 C-62.83 51.343 -62.005 51.352 -61.155 51.361 C-58.426 51.383 -55.698 51.368 -52.969 51.352 C-51.075 51.355 -49.18 51.36 -47.286 51.366 C-43.315 51.373 -39.344 51.363 -35.373 51.339 C-30.278 51.311 -25.184 51.327 -20.089 51.357 C-16.177 51.375 -12.265 51.37 -8.353 51.357 C-6.475 51.353 -4.596 51.357 -2.717 51.369 C-0.093 51.382 2.53 51.362 5.154 51.334 C5.934 51.345 6.713 51.355 7.516 51.365 C9.931 51.374 9.931 51.374 13.25 50.688 C16.895 46.326 16.752 42.292 16.598 36.816 C15.33 25.411 8.198 16.749 -0.262 9.512 C-20.002 -4.96 -48.924 -2.356 -65.625 15.5 Z " fill="#2E0708" transform="translate(339.75,349.3125)"/>
<path d="M0 0 C3.875 -0.502 6.108 -0.572 9.438 1.562 C11.575 4.896 11.417 7.107 11 11 C10.018 14.125 9.059 14.956 6.375 16.938 C5.591 17.618 4.808 18.299 4 19 C3.802 21.586 3.802 21.586 4 24 C5.355 23.948 5.355 23.948 6.738 23.895 C7.918 23.867 9.097 23.84 10.312 23.812 C11.484 23.778 12.656 23.743 13.863 23.707 C17 24 17 24 18.902 25.289 C20.705 28.098 20.235 30.765 20 34 C19.505 34.99 19.505 34.99 19 36 C16.996 36.203 16.996 36.203 14.438 36.25 C7.516 36.833 3.784 40.008 -0.828 44.965 C-3.53 48.253 -4.914 50.199 -5.375 54.5 C-5.251 55.325 -5.128 56.15 -5 57 C-2.674 57.408 -2.674 57.408 0 57 C2.242 54.889 2.242 54.889 4.125 52.125 C6.364 49.067 7.822 47.119 11 45 C15.203 45.076 17.305 45.392 20.5 48.188 C22 51 22 51 22.125 53.812 C19.517 61.203 13.567 66.846 8.21 72.41 C5.857 74.865 3.957 77.071 2.168 79.992 C-0.045 83.396 -1.405 85.021 -5 87 C-13.256 88.227 -21.709 87.611 -30 87 C-27.893 79.625 -25.391 72.449 -22.75 65.25 C-17.102 49.699 -12.048 33.958 -7.003 18.202 C-6.687 17.22 -6.37 16.237 -6.044 15.225 C-5.445 13.364 -4.849 11.502 -4.258 9.638 C-3.99 8.807 -3.722 7.975 -3.445 7.119 C-3.213 6.393 -2.982 5.667 -2.743 4.919 C-2 3 -2 3 0 0 Z " fill="#9DBB43" transform="translate(855,595)"/>
<path d="M0 0 C14.52 0 29.04 0 44 0 C44 12.87 44 25.74 44 39 C29.48 39 14.96 39 0 39 C0 26.13 0 13.26 0 0 Z " fill="#5D7ABD" transform="translate(735,780)"/>
<path d="M0 0 C14.19 0 28.38 0 43 0 C43 12.87 43 25.74 43 39 C28.81 39 14.62 39 0 39 C0 26.13 0 13.26 0 0 Z " fill="#5D7ABD" transform="translate(684,780)"/>
<path d="M0 0 C12.87 0 25.74 0 39 0 C43 19 43 19 43 39 C28.81 39 14.62 39 0 39 C0 26.13 0 13.26 0 0 Z " fill="#41875A" transform="translate(284,780)"/>
<path d="M0 0 C14.19 0 28.38 0 43 0 C43 11.55 43 23.1 43 35 C37.06 35.33 31.12 35.66 25 36 C26.65 37.98 28.3 39.96 30 42 C34.29 42.33 38.58 42.66 43 43 C43 52.9 43 62.8 43 73 C42.67 73 42.34 73 42 73 C41.781 72.189 41.562 71.378 41.336 70.543 C36.024 51.993 25.997 38.858 9.043 29.34 C5.619 27.683 5.619 27.683 0 27 C0 18.09 0 9.18 0 0 Z " fill="#FEFEFE" transform="translate(426,692)"/>
<path d="M0 0 C14.52 0 29.04 0 44 0 C44 11.88 44 23.76 44 36 C29.48 36 14.96 36 0 36 C0 24.12 0 12.24 0 0 Z " fill="#5D7ABD" transform="translate(735,735)"/>
<path d="M0 0 C14.19 0 28.38 0 43 0 C43 11.88 43 23.76 43 36 C28.81 36 14.62 36 0 36 C0 24.12 0 12.24 0 0 Z " fill="#5D7ABD" transform="translate(684,735)"/>
<path d="M0 0 C14.52 0 29.04 0 44 0 C44 11.22 44 22.44 44 34 C29.48 34 14.96 34 0 34 C0 22.78 0 11.56 0 0 Z " fill="#5D7ABD" transform="translate(735,692)"/>
<path d="M0 0 C14.19 0 28.38 0 43 0 C43 11.22 43 22.44 43 34 C28.81 34 14.62 34 0 34 C0 22.78 0 11.56 0 0 Z " fill="#5D7ABD" transform="translate(684,692)"/>
<path d="M0 0 C14.19 0 28.38 0 43 0 C43 11.22 43 22.44 43 34 C28.81 34 14.62 34 0 34 C0 22.78 0 11.56 0 0 Z " fill="#FEFEFE" transform="translate(568,692)"/>
<path d="M0 0 C14.19 0 28.38 0 43 0 C43 11.22 43 22.44 43 34 C28.81 34 14.62 34 0 34 C0 22.78 0 11.56 0 0 Z " fill="#41875A" transform="translate(284,692)"/>
<path d="M0 0 C14.52 0 29.04 0 44 0 C44 11.22 44 22.44 44 34 C39.155 34.254 34.333 34.472 29.486 34.604 C27.842 34.659 26.199 34.734 24.557 34.83 C10.876 35.607 10.876 35.607 6.125 31.538 C4.12 28.771 2.501 26.064 1 23 C0.67 22.67 0.34 22.34 0 22 C0 14.74 0 7.48 0 0 Z " fill="#41875A" transform="translate(231,692)"/>
<path d="M0 0 C13.86 0 27.72 0 42 0 C42 11.22 42 22.44 42 34 C28.14 34 14.28 34 0 34 C0 22.78 0 11.56 0 0 Z " fill="#5D7ABD" transform="translate(788,692)"/>
<path d="M0 0 C11.55 0 23.1 0 35 0 C35 12.87 35 25.74 35 39 C23.45 39 11.9 39 0 39 C0 26.13 0 13.26 0 0 Z " fill="#FEFEFE" transform="translate(478,780)"/>
<path d="M0 0 C11.55 0 23.1 0 35 0 C35 11.88 35 23.76 35 36 C23.45 36 11.9 36 0 36 C0 24.12 0 12.24 0 0 Z " fill="#FEFEFE" transform="translate(478,735)"/>
<path d="M0 0 C14.19 0 28.38 0 43 0 C43 20 43 20 41 26 C40.34 26 39.68 26 39 26 C38.794 24.701 38.587 23.401 38.375 22.062 C36.936 15.518 33.611 9.741 28 6 C25.354 6.312 25.354 6.312 23 7 C22.196 9.296 22.196 9.296 22 12 C23.321 14.188 23.321 14.188 25.312 16.062 C31.844 22.753 31 25.431 31 36 C20.77 36 10.54 36 0 36 C0 24.12 0 12.24 0 0 Z " fill="#41875A" transform="translate(284,735)"/>
<path d="M0 0 C2.64 0 5.28 0 8 0 C8 11.55 8 23.1 8 35 C5.69 35 3.38 35 1 35 C1 37.64 1 40.28 1 43 C3.31 43 5.62 43 8 43 C8 54.88 8 66.76 8 79 C5.36 79 2.72 79 0 79 C0 81.97 0 84.94 0 88 C2.64 88 5.28 88 8 88 C8 100.87 8 113.74 8 127 C3.71 127 -0.58 127 -5 127 C-5.082 119.426 -4.989 111.933 -4.562 104.375 C-4.183 97.629 -3.924 90.886 -3.746 84.133 C-3.725 83.345 -3.705 82.557 -3.683 81.746 C-3.581 77.778 -3.484 73.81 -3.393 69.841 C-3.217 62.563 -2.907 55.34 -2.236 48.088 C-1.738 41.573 -1.658 35.031 -1.5 28.5 C-1.269 18.97 -0.934 9.494 0 0 Z " fill="#5D7ABD" transform="translate(668,692)"/>
<path d="M0 0 C12.87 0 25.74 0 39 0 C39 8.58 39 17.16 39 26 C35.04 26.66 31.08 27.32 27 28 C23.313 29.354 23.313 29.354 20.312 31.062 C18.822 31.853 18.822 31.853 17.301 32.66 C15.11 33.805 15.11 33.805 14 35 C9.38 35 4.76 35 0 35 C0 23.45 0 11.9 0 0 Z " fill="#41875A" transform="translate(335,692)"/>
<path d="M0 0 C13.86 0 27.72 0 42 0 C42 5.28 42 10.56 42 16 C40.866 16.351 39.731 16.701 38.562 17.062 C32.631 19.33 26.502 22.738 23.766 28.68 C23.389 29.59 23.013 30.5 22.625 31.438 C21.281 34.02 21.281 34.02 19 36 C12.729 37.317 6.33 36.434 0 36 C0 24.12 0 12.24 0 0 Z " fill="#5D7ABD" transform="translate(788,735)"/>
<path d="M0 0 C1 0.005 2 0.01 3.031 0.016 C4.111 0.019 5.19 0.022 6.302 0.026 C8.007 0.038 8.007 0.038 9.746 0.051 C11.456 0.058 11.456 0.058 13.201 0.065 C16.028 0.077 18.856 0.093 21.683 0.114 C21.178 4.894 20.543 9.084 18.871 13.614 C17.194 18.447 15.759 23.285 14.496 28.239 C14.172 29.499 13.849 30.76 13.515 32.059 C12.566 36.687 12.153 41.412 11.683 46.114 C2.443 46.114 -6.797 46.114 -16.317 46.114 C-15.515 41.304 -14.499 36.73 -13.192 32.051 C-12.979 31.286 -12.766 30.521 -12.546 29.733 C-10.716 23.285 -8.679 16.912 -6.567 10.551 C-6.261 9.629 -5.955 8.706 -5.64 7.756 C-3.078 0.151 -3.078 0.151 0 0 Z " fill="#FCA04E" transform="translate(803.316650390625,331.886474609375)"/>
<path d="M0 0 C2.297 1.127 3.983 2.386 6 4 C6.33 3.01 6.66 2.02 7 1 C9.64 1 12.28 1 15 1 C15.1 5.553 15.172 10.106 15.22 14.66 C15.24 16.206 15.267 17.752 15.302 19.297 C15.652 35.267 15.652 35.267 11 42 C6.784 45.96 2.752 46.179 -2.875 46.25 C-4.089 46.276 -5.304 46.302 -6.555 46.328 C-10.207 45.98 -12.059 45.125 -15 43 C-14.505 40.03 -14.505 40.03 -14 37 C-12.515 36.505 -12.515 36.505 -11 36 C-10.01 36.66 -9.02 37.32 -8 38 C-3.683 38.684 -0.132 38.793 3.5 36.25 C4.941 34.089 5.635 32.554 6 30 C5.154 30.495 4.309 30.99 3.438 31.5 C-0.481 33.21 -2.768 33.529 -7 33 C-11.796 30.555 -14.761 27.908 -17 23 C-17.739 17.078 -17.893 11.885 -15.312 6.438 C-14.549 5.633 -13.786 4.829 -13 4 C-12.257 3.216 -11.515 2.433 -10.75 1.625 C-7.148 -0.503 -4.034 -0.818 0 0 Z " fill="#2E0708" transform="translate(344,501)"/>
<path d="M0 0 C3 1.5 3 1.5 5 3 C5.33 2.34 5.66 1.68 6 1 C8.64 1 11.28 1 14 1 C14.099 6.017 14.172 11.033 14.22 16.051 C14.24 17.756 14.267 19.462 14.302 21.167 C14.351 23.624 14.373 26.081 14.391 28.539 C14.411 29.296 14.432 30.052 14.453 30.831 C14.455 36.002 13.411 38.898 10 43 C5.642 45.869 2.169 46.409 -3 46.375 C-4.176 46.383 -5.351 46.39 -6.562 46.398 C-10.297 45.966 -12.763 44.865 -16 43 C-15.398 40.98 -14.727 38.979 -14 37 C-13.01 36.505 -13.01 36.505 -12 36 C-11.393 36.304 -10.786 36.608 -10.16 36.922 C-7.72 38.14 -6.146 38.268 -3.438 38.25 C-2.673 38.255 -1.909 38.26 -1.121 38.266 C1.3 38.123 1.3 38.123 4 36 C4.733 32.934 4.733 32.934 5 30 C4.34 30.495 3.68 30.99 3 31.5 C-0.761 33.38 -3.925 33.957 -8 33 C-12.668 30.265 -15.387 27.189 -17 22 C-17.643 16.446 -17.763 11.582 -15.312 6.5 C-10.445 1.238 -7.266 -1.275 0 0 Z " fill="#2E0708" transform="translate(612,501)"/>
<path d="M0 0 C0.99 0.66 1.98 1.32 3 2 C2.311 7.592 0.525 12.644 -1.312 17.938 C-3.49 24.314 -5.522 30.658 -7.188 37.188 C-8.457 42.157 -9.977 46.796 -11.992 51.508 C-13.593 55.468 -14.813 59.549 -16.07 63.629 C-17 66 -17 66 -19 67 C-19.208 66.273 -19.415 65.546 -19.629 64.797 C-22.375 55.836 -25.872 46.054 -33.438 40.062 C-36.999 35.806 -36.718 32.488 -36.465 27.074 C-35.835 22.909 -34.878 21.043 -32 18 C-29 16 -29 16 -23 16 C-22.67 21.61 -22.34 27.22 -22 33 C-20.02 33 -18.04 33 -16 33 C-15.095 29.077 -14.845 25.33 -14.688 21.312 C-14.178 13.719 -12.57 7.597 -8.125 1.375 C-5.241 -0.491 -3.371 -0.43 0 0 Z " fill="#9DBB43" transform="translate(843,590)"/>
<path d="M0 0 C12.87 0 25.74 0 39 0 C39 19.556 39 19.556 38.5 26.562 C38.452 27.297 38.405 28.031 38.355 28.787 C38.242 30.525 38.122 32.263 38 34 C33.38 34 28.76 34 24 34 C21.243 27.999 19.56 21.984 17.982 15.584 C16.701 10.688 15.32 6.879 12 3 C10.68 3 9.36 3 8 3 C7.591 9.244 9.073 14.28 11 20.188 C11.568 21.95 12.13 23.714 12.688 25.48 C12.939 26.253 13.19 27.025 13.449 27.821 C14 30 14 30 14 34 C9.38 34 4.76 34 0 34 C0 22.78 0 11.56 0 0 Z " fill="#5D7ABD" transform="translate(620,692)"/>
<path d="M0 0 C2.301 1.122 3.982 2.385 6 4 C6.66 3.34 7.32 2.68 8 2 C11.83 -0.553 14.52 -0.762 19 0 C22.586 1.637 23.793 2.69 26 6 C26.227 8.911 26.227 8.911 26.195 12.418 C26.189 13.672 26.182 14.925 26.176 16.217 C26.159 17.527 26.142 18.837 26.125 20.188 C26.115 21.523 26.106 22.858 26.098 24.193 C26.074 27.462 26.041 30.731 26 34 C23.36 34 20.72 34 18 34 C17.97 32.971 17.97 32.971 17.94 31.92 C17.845 28.822 17.735 25.723 17.625 22.625 C17.594 21.545 17.563 20.465 17.531 19.352 C17.473 17.805 17.473 17.805 17.414 16.227 C17.383 15.273 17.351 14.32 17.319 13.338 C17.214 10.811 17.214 10.811 15 9 C11.174 9.188 11.174 9.188 8 11 C7.855 12.621 7.773 14.248 7.719 15.875 C7.681 16.86 7.644 17.845 7.605 18.859 C7.571 19.896 7.536 20.932 7.5 22 C7.431 24.042 7.359 26.084 7.281 28.125 C7.236 29.49 7.236 29.49 7.189 30.883 C7 33 7 33 6 34 C3.329 34.141 0.676 34.042 -2 34 C-2.025 33.308 -2.05 32.617 -2.076 31.905 C-2.192 28.79 -2.314 25.676 -2.438 22.562 C-2.477 21.474 -2.516 20.385 -2.557 19.264 C-2.599 18.229 -2.64 17.195 -2.684 16.129 C-2.72 15.171 -2.757 14.212 -2.795 13.225 C-2.758 11.029 -2.758 11.029 -4 10 C-7.5 9.833 -7.5 9.833 -11 10 C-12.683 11.683 -12.228 13.82 -12.316 16.129 C-12.358 17.163 -12.4 18.198 -12.443 19.264 C-12.483 20.352 -12.522 21.441 -12.562 22.562 C-12.606 23.655 -12.649 24.747 -12.693 25.873 C-12.8 28.582 -12.902 31.291 -13 34 C-15.97 34 -18.94 34 -22 34 C-22 23.11 -22 12.22 -22 1 C-19.03 1 -16.06 1 -13 1 C-12.67 1.66 -12.34 2.32 -12 3 C-11.505 2.505 -11.01 2.01 -10.5 1.5 C-7.044 -0.574 -3.883 -0.707 0 0 Z " fill="#35181E" transform="translate(509,501)"/>
<path d="M0 0 C2.938 2 2.938 2 5 4 C7.494 2.796 9.681 1.546 12 0 C18.673 -0.766 18.673 -0.766 21.82 1.051 C23.99 2.827 25.738 4.475 27 7 C27.085 9.032 27.107 11.067 27.098 13.102 C27.094 14.313 27.091 15.525 27.088 16.773 C27.075 18.68 27.075 18.68 27.062 20.625 C27.058 21.904 27.053 23.183 27.049 24.5 C27.037 27.667 27.021 30.833 27 34 C24.36 34 21.72 34 19 34 C18.97 32.971 18.97 32.971 18.94 31.92 C18.845 28.822 18.735 25.723 18.625 22.625 C18.594 21.545 18.563 20.465 18.531 19.352 C18.473 17.805 18.473 17.805 18.414 16.227 C18.383 15.273 18.351 14.32 18.319 13.338 C18.214 10.811 18.214 10.811 16 9 C12.909 8.762 10.969 9.01 8 10 C7.67 17.92 7.34 25.84 7 34 C4.36 34 1.72 34 -1 34 C-1.02 33.314 -1.04 32.627 -1.06 31.92 C-1.155 28.822 -1.265 25.723 -1.375 22.625 C-1.406 21.545 -1.437 20.465 -1.469 19.352 C-1.507 18.32 -1.546 17.289 -1.586 16.227 C-1.633 14.797 -1.633 14.797 -1.681 13.338 C-1.786 10.811 -1.786 10.811 -4 9 C-6.5 8.667 -6.5 8.667 -9 9 C-11.52 11.52 -11.282 12.481 -11.379 15.973 C-11.413 16.954 -11.447 17.936 -11.482 18.947 C-11.509 19.975 -11.535 21.003 -11.562 22.062 C-11.622 24.095 -11.686 26.128 -11.754 28.16 C-11.778 29.064 -11.802 29.968 -11.826 30.899 C-12 33 -12 33 -13 34 C-15.64 34 -18.28 34 -21 34 C-21 23.11 -21 12.22 -21 1 C-18.36 1 -15.72 1 -13 1 C-12.67 1.99 -12.34 2.98 -12 4 C-11.319 3.34 -10.639 2.68 -9.938 2 C-6.251 -0.51 -4.383 -0.626 0 0 Z " fill="#2E0708" transform="translate(258,501)"/>
<path d="M0 0 C18.81 0 37.62 0 57 0 C57 2.64 57 5.28 57 8 C56.051 8.351 55.102 8.701 54.125 9.062 C43.167 13.832 35.693 21.618 30 32 C26.436 30.812 26.182 30.06 24.312 26.938 C18.424 17.822 10.451 10.484 0 7 C0 4.69 0 2.38 0 0 Z " fill="#FEFEFE" transform="translate(701,608)"/>
<path d="M0 0 C9.57 0 19.14 0 29 0 C29 11.88 29 23.76 29 36 C20.75 36 12.5 36 4 36 C3.688 25.125 3.688 25.125 3.612 21.762 C3.396 15.825 2.584 10.675 0.632 5.054 C0 3 0 3 0 0 Z " fill="#41875A" transform="translate(246,735)"/>
<path d="M0 0 C5.442 1.814 8.778 5.383 12 10 C13.645 14.934 13.59 19.264 11.938 24.125 C8.892 28.643 5.219 32.26 0 34 C-4.997 34.611 -9.532 34.802 -13.875 32 C-18.033 28.51 -20.325 24.281 -21.414 18.988 C-21.839 13.299 -19.528 9.323 -16 5 C-10.667 0.163 -7.043 -0.632 0 0 Z " fill="#2E0708" transform="translate(737,501)"/>
<path d="M0 0 C5.881 1.96 10.24 6.48 13 12 C13.811 18.233 13.331 23.14 9.609 28.305 C5.629 32.498 1.093 34.192 -4.625 34.5 C-10.155 34.233 -13.287 31.528 -17.312 27.938 C-20.847 23.879 -20.331 19.065 -20.281 13.949 C-19.775 8.645 -17.23 6.083 -13.375 2.688 C-8.919 -0.479 -5.358 -0.48 0 0 Z " fill="#2E0708" transform="translate(699,501)"/>
<path d="M0 0 C5.451 2.215 9.589 5.574 12 11 C12.804 17.195 12.731 22.776 9 28 C4.861 32.151 1.188 34.133 -4.688 34.438 C-9.722 34.379 -12.591 33.034 -16.371 29.766 C-20.571 25.213 -21.582 20.136 -21.348 14.137 C-20.359 8.059 -15.612 4.509 -11 1 C-7.485 -0.757 -3.836 -0.538 0 0 Z " fill="#2E0708" transform="translate(469,501)"/>
<path d="M0 0 C4.62 0 9.24 0 14 0 C13.674 1.268 13.348 2.537 13.012 3.844 C11.846 9.104 11.738 14.131 11.812 19.5 C11.813 20.828 11.813 20.828 11.814 22.184 C11.852 27.921 12.358 33.221 13 39 C3.43 39 -6.14 39 -16 39 C-16 27 -16 27 -14.496 24.133 C-13.817 23.47 -13.137 22.808 -12.438 22.125 C-6.638 15.778 -2.721 8.162 0 0 Z " fill="#41875A" transform="translate(247,780)"/>
<path d="M0 0 C3.357 2.478 5.204 5.064 6.625 8.938 C7.118 12.911 7.05 16.815 6.938 20.812 C6.928 21.87 6.918 22.927 6.908 24.016 C6.794 31.769 6.794 31.769 5.625 32.938 C2.954 33.079 0.301 32.98 -2.375 32.938 C-2.705 32.278 -3.035 31.617 -3.375 30.938 C-3.943 31.26 -4.512 31.582 -5.098 31.914 C-8.803 33.579 -12.392 33.534 -16.375 32.938 C-19.245 31.144 -20.866 29.955 -22.375 26.938 C-22.788 23.553 -22.877 20.314 -22.375 16.938 C-19.817 14.177 -17.219 12.093 -13.387 11.77 C-8.924 11.732 -5.438 11.841 -1.375 13.938 C-2.035 11.957 -2.695 9.977 -3.375 7.938 C-10.939 7.732 -10.939 7.732 -18.375 8.938 C-21.375 5.188 -21.375 5.188 -21.375 2.938 C-14.142 -1.349 -8.151 -2.566 0 0 Z " fill="#2E0708" transform="translate(314.375,502.0625)"/>
<path d="M0 0 C5.049 2.878 7.65 5.746 9.84 11.129 C10.186 13.94 10.086 16.275 9.84 19.129 C8.222 20.747 6.383 20.352 4.148 20.445 C2.732 20.508 2.732 20.508 1.287 20.572 C0.294 20.612 -0.699 20.651 -1.723 20.691 C-2.72 20.735 -3.717 20.778 -4.744 20.822 C-7.216 20.929 -9.688 21.031 -12.16 21.129 C-11.83 22.449 -11.5 23.769 -11.16 25.129 C-5.721 25.346 -1.289 25.233 3.84 23.129 C6.84 26.754 6.84 26.754 6.84 30.129 C0.897 33.298 -4.457 34.04 -11.16 33.129 C-16.162 30.673 -19.659 27.132 -22.16 22.129 C-22.935 15.296 -22.208 9.782 -18.16 4.129 C-13.006 -0.774 -6.802 -2.743 0 0 Z " fill="#380F11" transform="translate(387.16015625,501.87109375)"/>
<path d="M0 0 C4.95 0 9.9 0 15 0 C15.075 1.16 15.15 2.32 15.227 3.516 C16.284 17.016 19.068 27.173 29.461 36.574 C29.969 37.045 30.477 37.515 31 38 C31 38.33 31 38.66 31 39 C20.77 39 10.54 39 0 39 C0 26.13 0 13.26 0 0 Z " fill="#5D7ABD" transform="translate(788,780)"/>
<path d="M0 0 C3.411 1.706 5.423 2.852 7.15 6.288 C8.076 9.243 8.244 11.611 8.23 14.703 C8.229 15.765 8.227 16.827 8.225 17.922 C8.206 19.569 8.206 19.569 8.188 21.25 C8.187 22.364 8.186 23.477 8.186 24.625 C8.14 32.86 8.14 32.86 7 34 C4.329 34.141 1.676 34.042 -1 34 C-1.02 33.314 -1.04 32.627 -1.06 31.92 C-1.155 28.822 -1.265 25.723 -1.375 22.625 C-1.406 21.545 -1.437 20.465 -1.469 19.352 C-1.507 18.32 -1.546 17.289 -1.586 16.227 C-1.633 14.797 -1.633 14.797 -1.681 13.338 C-1.786 10.811 -1.786 10.811 -4 9 C-7.733 8.617 -8.776 8.851 -12 11 C-12.509 13.416 -12.509 13.416 -12.512 16.227 C-12.547 17.258 -12.583 18.289 -12.619 19.352 C-12.653 20.972 -12.653 20.972 -12.688 22.625 C-12.722 23.713 -12.756 24.801 -12.791 25.922 C-12.874 28.614 -12.943 31.307 -13 34 C-15.97 34 -18.94 34 -22 34 C-22 23.11 -22 12.22 -22 1 C-19.36 1 -16.72 1 -14 1 C-14 1.99 -14 2.98 -14 4 C-13.175 3.34 -12.35 2.68 -11.5 2 C-7.733 -0.487 -4.404 -0.869 0 0 Z " fill="#35181E" transform="translate(581,501)"/>
<path d="M0 0 C3.069 1.719 5.404 3.807 7 7 C7.085 9.032 7.107 11.067 7.098 13.102 C7.094 14.313 7.091 15.525 7.088 16.773 C7.08 18.044 7.071 19.315 7.062 20.625 C7.058 21.904 7.053 23.183 7.049 24.5 C7.037 27.667 7.021 30.833 7 34 C0.848 34.098 0.848 34.098 -1 34 C-2.642 32.358 -2.186 30.422 -2.246 28.16 C-2.279 27.18 -2.312 26.199 -2.346 25.189 C-2.407 23.109 -2.464 21.028 -2.518 18.947 C-2.569 17.475 -2.569 17.475 -2.621 15.973 C-2.646 15.068 -2.671 14.163 -2.697 13.231 C-2.798 10.798 -2.798 10.798 -5 9 C-7.786 8.643 -9.336 8.505 -11.628 10.214 C-13.408 12.531 -13.424 13.984 -13.512 16.887 C-13.547 17.825 -13.583 18.762 -13.619 19.729 C-13.653 21.193 -13.653 21.193 -13.688 22.688 C-13.722 23.676 -13.756 24.664 -13.791 25.682 C-13.874 28.121 -13.943 30.56 -14 33 C-16.64 33 -19.28 33 -22 33 C-22 22.44 -22 11.88 -22 1 C-19.36 1 -16.72 1 -14 1 C-13.67 1.66 -13.34 2.32 -13 3 C-12.526 2.505 -12.051 2.01 -11.562 1.5 C-7.762 -0.725 -4.298 -0.818 0 0 Z " fill="#2E0708" transform="translate(778,501)"/>
<path d="M0 0 C3.062 1.688 3.062 1.688 4.062 4.688 C2.625 6.875 2.625 6.875 1.062 8.688 C0.382 8.522 -0.299 8.358 -1 8.188 C-4.354 7.617 -7.541 7.621 -10.938 7.688 C-11.268 8.678 -11.597 9.668 -11.938 10.688 C-11.201 10.797 -10.465 10.907 -9.707 11.02 C0.25 12.637 0.25 12.637 4.062 15.688 C5.8 19.163 5.658 22.896 5.062 26.688 C2.533 29.969 0.985 31.38 -2.938 32.688 C-9.145 33.194 -14.669 33.431 -19.938 29.688 C-20.268 28.697 -20.597 27.707 -20.938 26.688 C-19.5 24.5 -19.5 24.5 -17.938 22.688 C-16.927 23.018 -15.916 23.347 -14.875 23.688 C-11.183 24.758 -7.785 24.845 -3.938 24.688 C-3.938 23.697 -3.938 22.707 -3.938 21.688 C-4.601 21.517 -5.265 21.347 -5.949 21.172 C-11.08 19.764 -15.077 18.548 -18.938 14.688 C-20.488 11.587 -20.227 9.109 -19.938 5.688 C-15.218 -1.898 -8.103 -3.168 0 0 Z " fill="#2E0708" transform="translate(668.9375,502.3125)"/>
<path d="M0 0 C2.617 1.037 3.881 2.048 6 4 C6 7.517 5.176 8.371 3 11 C2.01 10.67 1.02 10.34 0 10 C-5.907 9.281 -5.907 9.281 -11.062 11.625 C-12.757 15.919 -12.161 19.656 -11 24 C-3.81 25.225 -3.81 25.225 3 23 C5.062 24.75 5.062 24.75 7 27 C7.062 29.062 7.062 29.062 6 31 C0.588 34.913 -4.541 34.891 -11 34 C-15.51 32.267 -18.079 29.325 -20.438 25.188 C-22.212 21.075 -22.993 17.417 -22 13 C-17.559 3.025 -10.751 -1.216 0 0 Z " fill="#380F11" transform="translate(438,501)"/>
<path d="M0 0 C2.97 0 5.94 0 9 0 C9 14.85 9 29.7 9 45 C6.03 45 3.06 45 0 45 C0 30.15 0 15.3 0 0 Z " fill="#2E0708" transform="translate(219,490)"/>
<path d="M0 0 C4.551 1.205 6.894 3.689 9.961 7.051 C11.422 9.792 10.853 11.033 10 14 C9.519 15.866 9.519 15.866 9.027 17.77 C8.666 19.118 8.302 20.465 7.938 21.812 C7.751 22.505 7.565 23.198 7.373 23.912 C6.917 25.608 6.459 27.304 6 29 C1.71 29 -2.58 29 -7 29 C-4.981 24.962 -3.361 23.325 0 20.438 C2.817 18.009 4.93 16.105 7 13 C6.688 10.354 6.688 10.354 6 8 C2.031 8.535 0.41 10.345 -2.23 13.254 C-3.034 14.108 -3.838 14.962 -4.666 15.842 C-6.34 17.648 -8.002 19.466 -9.65 21.295 C-15.755 27.72 -15.755 27.72 -19.62 28.589 C-22.113 28.59 -22.113 28.59 -26 28 C-21.455 22.607 -16.722 17.434 -11.875 12.312 C-11.172 11.567 -10.47 10.821 -9.746 10.053 C-6.54 6.656 -3.314 3.292 0 0 Z " fill="#ED913F" transform="translate(772,350)"/>
<path d="M0 0 C6.384 0.828 10.774 4.321 14.688 9.312 C18.471 14.796 20.877 19.578 20.375 26.438 C13.203 27.155 8.029 23.96 2.625 19.562 C-0.864 16.369 -4.211 13.234 -4.934 8.352 C-5 6.188 -5 6.188 -4.625 2.438 C-2.625 0.438 -2.625 0.438 0 0 Z " fill="#FDBE90" transform="translate(274.625,232.5625)"/>
<path d="M0 0 C2 2 2 2 2.5 5.125 C1.562 12.395 -3.741 17.274 -9.273 21.746 C-13.435 24.768 -16.812 26.458 -22 26 C-21.508 17.138 -18.559 9.944 -11.875 3.938 C-8.052 0.776 -5.005 -0.385 0 0 Z " fill="#FDBE90" transform="translate(351,233)"/>
<path d="M0 0 C3 1.812 3 1.812 5 5 C5.401 8.706 5.292 12.289 5 16 C4.12 16.121 3.239 16.242 2.332 16.367 C1.171 16.535 0.009 16.702 -1.188 16.875 C-2.336 17.037 -3.485 17.2 -4.668 17.367 C-7.694 17.942 -10.177 18.811 -13 20 C-15.125 20 -15.125 20 -17 19 C-20.092 14.202 -20.092 14.202 -19.852 11.062 C-18.673 8.207 -16.901 6.807 -14.562 4.812 C-13.759 4.118 -12.956 3.423 -12.129 2.707 C-8.321 -0.346 -4.774 -0.758 0 0 Z " fill="#41875A" transform="translate(358,614)"/>
<path d="M0 0 C4.29 0 8.58 0 13 0 C13.33 0.99 13.66 1.98 14 3 C12.02 3 10.04 3 8 3 C7.591 9.244 9.073 14.28 11 20.188 C11.568 21.95 12.13 23.714 12.688 25.48 C12.939 26.253 13.19 27.025 13.449 27.821 C14 30 14 30 14 34 C9.38 34 4.76 34 0 34 C0 22.78 0 11.56 0 0 Z " fill="#FEFEFE" transform="translate(620,692)"/>
<path d="M0 0 C-1.462 4.966 -2.951 9.913 -4.625 14.812 C-5.655 17.854 -6.487 20.821 -7 24 C-8.98 24 -10.96 24 -13 24 C-14.178 21.088 -15.34 18.17 -16.5 15.25 C-16.834 14.425 -17.168 13.6 -17.512 12.75 C-17.828 11.951 -18.143 11.152 -18.469 10.328 C-18.762 9.595 -19.055 8.862 -19.357 8.106 C-20 6 -20 6 -20 2 C-6.367 -0.296 -6.367 -0.296 0 0 Z " fill="#35181E" transform="translate(403,704)"/>
<path d="M0 0 C68.97 0 137.94 0 209 0 C204.842 2.079 202.087 2.276 197.608 2.234 C196.861 2.235 196.114 2.236 195.344 2.237 C192.839 2.238 190.335 2.224 187.83 2.211 C186.034 2.209 184.239 2.208 182.443 2.207 C178.575 2.204 174.706 2.195 170.837 2.181 C164.714 2.159 158.59 2.151 152.466 2.144 C142.772 2.133 133.078 2.112 123.383 2.087 C106.047 2.043 88.711 2.01 71.374 1.987 C65.294 1.979 59.214 1.965 53.134 1.946 C49.339 1.936 45.544 1.929 41.749 1.923 C39.997 1.92 38.246 1.915 36.495 1.908 C28.323 1.875 20.223 1.869 12.089 2.796 C9.44 3.055 6.948 2.906 4.312 2.562 C3.484 2.461 2.655 2.359 1.801 2.254 C1.207 2.17 0.612 2.086 0 2 C0 1.34 0 0.68 0 0 Z " fill="#200000" transform="translate(420,682)"/>
<path d="M0 0 C2.063 -0.341 2.063 -0.341 4.57 -0.293 C5.377 -0.285 6.185 -0.278 7.016 -0.27 C8.042 -0.243 9.068 -0.216 10.125 -0.188 C15.013 -0.095 15.013 -0.095 20 0 C20 8.58 20 17.16 20 26 C18.35 26.66 16.7 27.32 15 28 C13.314 29.647 11.644 31.311 10 33 C9.34 33 8.68 33 8 33 C8.283 28.146 8.562 23.981 10.562 19.5 C12.395 15.038 12.851 10.774 12 6 C10.928 4.105 10.928 4.105 9 3 C6.258 2.637 6.258 2.637 3.312 2.812 C2.319 2.84 1.325 2.867 0.301 2.895 C-0.838 2.947 -0.838 2.947 -2 3 C-1.34 2.01 -0.68 1.02 0 0 Z " fill="#EDEAEB" transform="translate(398,692)"/>
<path d="M0 0 C0.309 7.563 0.427 18.146 -3 25 C-5.31 25 -7.62 25 -10 25 C-10.326 23.938 -10.652 22.876 -10.988 21.781 C-13.15 14.78 -15.302 7.817 -18 1 C-17.252 1.095 -16.505 1.191 -15.734 1.289 C-14.257 1.455 -14.257 1.455 -12.75 1.625 C-11.775 1.741 -10.801 1.857 -9.797 1.977 C-6.006 2.008 -3.765 0 0 0 Z " fill="#35181E" transform="translate(192,680)"/>
<path d="M0 0 C6.93 0 13.86 0 21 0 C21 4.29 21 8.58 21 13 C14.07 13 7.14 13 0 13 C0 8.71 0 4.42 0 0 Z " fill="#FCA04E" transform="translate(653,270)"/>
<path d="M0 0 C4.488 1.816 7.318 3.977 10 8 C9.625 10.688 9.625 10.688 9 13 C6.938 13.875 6.938 13.875 4 14 C2.355 12.73 2.355 12.73 0.625 11.062 C-2.018 8.614 -2.878 8.026 -6.562 7.25 C-10.714 8.156 -11.879 9.632 -14.578 12.73 C-16 14 -16 14 -18.875 13.875 C-19.927 13.442 -19.927 13.442 -21 13 C-21.33 11.35 -21.66 9.7 -22 8 C-20.711 6.852 -19.418 5.706 -18.125 4.562 C-17.046 3.605 -17.046 3.605 -15.945 2.629 C-11.325 -1.24 -5.758 -0.655 0 0 Z " fill="#2E0708" transform="translate(317,320)"/>
<path d="M0 0 C2.64 0 5.28 0 8 0 C8 10.89 8 21.78 8 33 C5.36 33 2.72 33 0 33 C0 22.11 0 11.22 0 0 Z " fill="#2E0708" transform="translate(543,502)"/>
<path d="M0 0 C0.99 0 1.98 0 3 0 C3 12.87 3 25.74 3 39 C1.02 39 -0.96 39 -3 39 C-7.446 12.882 -7.446 12.882 -1 1 C-0.67 0.67 -0.34 0.34 0 0 Z " fill="#41875A" transform="translate(272,780)"/>
<path d="M0 0 C6.6 0 13.2 0 20 0 C20.098 9.277 20.098 9.277 20 12 C19 13 19 13 17.142 13.114 C16.352 13.108 15.561 13.103 14.746 13.098 C13.892 13.094 13.038 13.091 12.158 13.088 C11.26 13.08 10.363 13.071 9.438 13.062 C8.536 13.058 7.634 13.053 6.705 13.049 C4.47 13.037 2.235 13.019 0 13 C0 8.71 0 4.42 0 0 Z " fill="#FCA04E" transform="translate(683,270)"/>
<path d="M0 0 C2.375 1.5 2.375 1.5 4 4 C4.781 8.333 4.753 11.765 2.438 15.562 C-0.955 17.563 -3.127 17.553 -7 17 C-9.365 15.133 -10.66 13.679 -12 11 C-12.43 7.128 -12.317 5.475 -10.125 2.188 C-6.616 -1.425 -4.806 -1.25 0 0 Z " fill="#F6F4F5" transform="translate(699,510)"/>
<path d="M0 0 C6.6 0 13.2 0 20 0 C20 0.33 20 0.66 20 1 C14.06 1.33 8.12 1.66 2 2 C3.65 3.98 5.3 5.96 7 8 C11.29 8.33 15.58 8.66 20 9 C20 18.9 20 28.8 20 39 C19.67 39 19.34 39 19 39 C18.781 38.189 18.562 37.378 18.336 36.543 C14.948 24.713 10.379 15.92 1.855 6.996 C0 5 0 5 -1 3 C-0.67 2.01 -0.34 1.02 0 0 Z " fill="#FEFEFE" transform="translate(449,726)"/>
<path d="M0 0 C3.742 1.157 5.29 1.798 7.438 5.062 C8.142 9.288 7.846 12.04 5.375 15.5 C2.438 18.062 2.438 18.062 -1.188 18.625 C-4.562 18.062 -4.562 18.062 -6.438 16.75 C-8.939 12.998 -9.015 9.438 -8.562 5.062 C-5.908 1.201 -4.74 0.083 0 0 Z " fill="#F6F4F5" transform="translate(733.5625,508.9375)"/>
<path d="M0 0 C2.5 1.562 2.5 1.562 4 4 C4.561 7.366 4.67 9.697 3.082 12.785 C1.005 15.629 -0.567 16.901 -4 17.688 C-8.112 16.745 -9.566 15.436 -12 12 C-12.888 8.102 -12.592 4.986 -10.5 1.5 C-6.968 -0.619 -4.017 -0.798 0 0 Z " fill="#F6F4F5" transform="translate(469,510)"/>
<path d="M0 0 C0.33 0 0.66 0 1 0 C1 10.89 1 21.78 1 33 C-4.94 33 -10.88 33 -17 33 C-15.701 31.546 -15.701 31.546 -14.375 30.062 C-6.874 21.234 -1.27 11.747 0 0 Z " fill="#FEFEFE" transform="translate(468,786)"/>
<path d="M0 0 C14.19 0 28.38 0 43 0 C43 11.88 43 23.76 43 36 C42.34 36 41.68 36 41 36 C41 24.78 41 13.56 41 2 C28.13 2 15.26 2 2 2 C2 13.22 2 24.44 2 36 C1.34 36 0.68 36 0 36 C0 24.12 0 12.24 0 0 Z " fill="#566FAF" transform="translate(684,735)"/>
<path d="M0 0 C0.33 0.66 0.66 1.32 1 2 C-3.455 2.495 -3.455 2.495 -8 3 C-4.922 4.026 -2.539 4.168 0.688 4.312 C6.404 4.729 10.105 6.082 15 9 C15 9.66 15 10.32 15 11 C4.44 11 -6.12 11 -17 11 C-19 7 -19 7 -18.625 4.75 C-18.419 4.173 -18.213 3.595 -18 3 C-17.67 3.66 -17.34 4.32 -17 5 C-15.866 4.361 -14.731 3.721 -13.562 3.062 C-9.098 0.802 -4.954 0.229 0 0 Z " fill="#37412F" transform="translate(219,671)"/>
<path d="M0 0 C2.375 1.375 2.375 1.375 4 4 C5.216 12.349 5.216 12.349 2.688 15.781 C-0.175 17.849 -2.604 17.417 -6 17 C-8.438 15.562 -8.438 15.562 -10 13 C-10.777 8.635 -10.778 5.226 -8.375 1.438 C-5.275 -0.439 -3.567 -0.595 0 0 Z " fill="#FEFEFE" transform="translate(346,509)"/>
<path d="M0 0 C3.3 0 6.6 0 10 0 C9.424 6.189 8.022 11.675 6.062 17.562 C5.532 19.189 5.002 20.815 4.473 22.441 C4.096 23.594 4.096 23.594 3.711 24.77 C2.736 27.828 1.859 30.907 1 34 C0.67 34 0.34 34 0 34 C0 22.78 0 11.56 0 0 Z " fill="#566FAF" transform="translate(839,692)"/>
<path d="M0 0 C1.021 -0.012 1.021 -0.012 2.062 -0.023 C4.608 0.5 5.477 1.284 7 3.375 C7.867 7.615 7.701 11.27 5.375 14.938 C2.275 16.814 0.567 16.97 -3 16.375 C-5.375 14.938 -5.375 14.938 -7 12.375 C-7.493 9.308 -7.623 6.425 -7 3.375 C-4.956 0.568 -3.426 -0.039 0 0 Z " fill="#FEFEFE" transform="translate(611,509.625)"/>
<path d="M0 0 C0.833 0.005 1.665 0.01 2.523 0.016 C3.422 0.019 4.321 0.022 5.248 0.026 C6.666 0.038 6.666 0.038 8.113 0.051 C9.062 0.056 10.012 0.06 10.99 0.065 C13.344 0.077 15.697 0.094 18.051 0.114 C18.051 4.734 18.051 9.354 18.051 14.114 C12.966 12.08 8.058 9.793 3.109 7.453 C0.712 6.403 -1.398 5.619 -3.949 5.114 C-2.832 0.165 -2.832 0.165 0 0 Z " fill="#3E7A51" transform="translate(203.949462890625,691.886474609375)"/>
<path d="M0 0 C14.52 0 29.04 0 44 0 C44 6.27 44 12.54 44 19 C43.01 19.495 43.01 19.495 42 20 C42.33 14.06 42.66 8.12 43 2 C29.8 2.33 16.6 2.66 3 3 C2.67 13.89 2.34 24.78 2 36 C1.34 36 0.68 36 0 36 C0 24.12 0 12.24 0 0 Z " fill="#5D7ABD" transform="translate(735,735)"/>
<path d="M0 0 C25.74 0 51.48 0 78 0 C77.67 0.66 77.34 1.32 77 2 C21.574 3.195 21.574 3.195 0 3 C0 2.01 0 1.02 0 0 Z " fill="#200000" transform="translate(737,682)"/>
<path d="M0 0 C14.19 0 28.38 0 43 0 C43 20 43 20 41 26 C40.34 26 39.68 26 39 26 C38.505 22.535 38.505 22.535 38 19 C39.32 19 40.64 19 42 19 C42 13.06 42 7.12 42 1 C28.47 1 14.94 1 1 1 C1 12.22 1 23.44 1 35 C10.57 35 20.14 35 30 35 C30 31.37 30 27.74 30 24 C30.33 24 30.66 24 31 24 C31 27.96 31 31.92 31 36 C20.77 36 10.54 36 0 36 C0 24.12 0 12.24 0 0 Z " fill="#3E7A51" transform="translate(284,735)"/>
<path d="M0 0 C5.794 0.979 10.401 2.091 15 6 C15.938 8.188 15.938 8.188 16 10 C15 11 15 11 13.051 11.114 C12.218 11.108 11.385 11.103 10.527 11.098 C9.628 11.094 8.729 11.091 7.803 11.088 C6.857 11.08 5.912 11.071 4.938 11.062 C3.988 11.058 3.039 11.053 2.061 11.049 C-0.293 11.037 -2.646 11.021 -5 11 C-5 10.34 -5 9.68 -5 9 C-3.504 7.781 -3.504 7.781 -1.562 6.5 C1.225 4.713 1.225 4.713 3 2 C2.01 2 1.02 2 0 2 C0 1.34 0 0.68 0 0 Z " fill="#264929" transform="translate(380,671)"/>
<path d="M0 0 C1.395 0.007 2.789 0.019 4.184 0.035 C4.895 0.04 5.605 0.044 6.338 0.049 C8.099 0.061 9.86 0.079 11.621 0.098 C10.961 4.058 10.301 8.018 9.621 12.098 C4.899 10.563 0.263 8.858 -4.379 7.098 C-4.421 5.098 -4.42 3.097 -4.379 1.098 C-3.379 0.098 -3.379 0.098 0 0 Z " fill="#F6F4F5" transform="translate(788.37890625,606.90234375)"/>
<path d="M0 0 C1.283 3.892 0.379 6.062 -1.164 9.828 C-2.442 13.149 -3.196 16.536 -4 20 C-8.29 20 -12.58 20 -17 20 C-14.582 15.164 -11.509 12.831 -7.41 9.414 C-4.802 6.802 -3.564 4.314 -2 1 C-1.34 0.67 -0.68 0.34 0 0 Z " fill="#D2473E" transform="translate(782,359)"/>
<path d="M0 0 C2.64 0 5.28 0 8 0 C7.041 0.65 7.041 0.65 6.062 1.312 C3.733 2.912 3.733 2.912 3 6 C2.846 8.802 2.743 11.583 2.684 14.387 C2.663 15.204 2.642 16.021 2.621 16.863 C2.555 19.471 2.496 22.079 2.438 24.688 C2.394 26.456 2.351 28.225 2.307 29.994 C2.2 34.329 2.098 38.665 2 43 C4.31 43 6.62 43 9 43 C9 43.66 9 44.32 9 45 C6.03 45 3.06 45 0 45 C0 30.15 0 15.3 0 0 Z " fill="#4C3737" transform="translate(219,490)"/>
<path d="M0 0 C0.66 0 1.32 0 2 0 C2.326 0.664 2.652 1.328 2.988 2.012 C3.425 2.895 3.862 3.778 4.312 4.688 C4.742 5.558 5.171 6.428 5.613 7.324 C6.969 9.941 8.484 12.473 10 15 C4.39 15 -1.22 15 -7 15 C-5.47 11.973 -3.94 8.945 -2.41 5.918 C-0.941 3.038 -0.941 3.038 0 0 Z " fill="#EDEAEB" transform="translate(392,416)"/>
<path d="M0 0 C13.53 0 27.06 0 41 0 C41 10.89 41 21.78 41 33 C40.67 33 40.34 33 40 33 C40 22.44 40 11.88 40 1 C27.79 1.33 15.58 1.66 3 2 C1.577 4.845 1.78 7.362 1.684 10.539 C1.642 11.841 1.6 13.143 1.557 14.484 C1.517 15.865 1.477 17.245 1.438 18.625 C1.394 20.013 1.351 21.401 1.307 22.789 C1.2 26.193 1.098 29.596 1 33 C0.67 33 0.34 33 0 33 C0 22.11 0 11.22 0 0 Z " fill="#5D7ABD" transform="translate(685,693)"/>
<path d="M0 0 C3.062 0.312 3.062 0.312 5 1.438 C6.062 3.312 6.062 3.312 5.938 6.375 C5.062 9.312 5.062 9.312 2.062 11.312 C-1.062 11.062 -1.062 11.062 -3.938 10.312 C-5.319 7.55 -5.128 5.365 -4.938 2.312 C-2.938 0.312 -2.938 0.312 0 0 Z " fill="#2E0708" transform="translate(796.9375,523.6875)"/>
<path d="M0 0 C1.454 0.99 1.454 0.99 2.938 2 C2.938 2.33 2.938 2.66 2.938 3 C-5.972 3 -14.882 3 -24.062 3 C-18.127 -2.935 -7.184 -4.062 0 0 Z " fill="#396D44" transform="translate(230.0625,678)"/>
<path d="M0 0 C0.66 0.66 1.32 1.32 2 2 C1.67 5.297 1.377 6.623 -1 9 C-4.5 9.25 -4.5 9.25 -8 9 C-10 7 -10 7 -10.312 4.5 C-10.209 3.675 -10.106 2.85 -10 2 C-6.327 -0.449 -4.336 -0.315 0 0 Z " fill="#EDEAEB" transform="translate(310,520)"/>
<path d="M0 0 C0.66 0 1.32 0 2 0 C2.029 3.812 2.047 7.625 2.062 11.438 C2.071 12.526 2.079 13.615 2.088 14.736 C2.091 15.771 2.094 16.805 2.098 17.871 C2.103 18.829 2.108 19.788 2.114 20.775 C2 23 2 23 1 24 C-6.306 24.589 -6.306 24.589 -9.062 22.25 C-10 20 -10 20 -9.812 17.812 C-9 16 -9 16 -7 15 C-6.752 15.969 -6.505 16.939 -6.25 17.938 C-5.837 18.948 -5.425 19.959 -5 21 C-3.68 21.33 -2.36 21.66 -1 22 C-0.67 14.74 -0.34 7.48 0 0 Z " fill="#4C3737" transform="translate(319,511)"/>
<path d="M0 0 C2.5 0.25 2.5 0.25 4.5 2.25 C4.812 5.25 4.812 5.25 4.5 8.25 C1.5 10.25 1.5 10.25 -1.062 10 C-3.5 9.25 -3.5 9.25 -5.5 7.25 C-5.09 3.149 -4.534 0.453 0 0 Z " fill="#2E0708" transform="translate(547.5,487.75)"/>
<path d="M0 0 C3.817 0.048 3.817 0.048 6.125 1.562 C7.125 3.25 7.125 3.25 7.125 6.25 C2.505 6.25 -2.115 6.25 -6.875 6.25 C-4.491 0.29 -4.491 0.29 0 0 Z " fill="#EDEAEB" transform="translate(380.875,508.75)"/>
<path d="M0 0 C1.32 0.33 2.64 0.66 4 1 C3.673 1.56 3.347 2.12 3.01 2.697 C1.868 5.301 1.783 7.015 1.84 9.844 C1.851 10.76 1.862 11.677 1.873 12.621 C1.894 13.571 1.916 14.521 1.938 15.5 C1.972 17.385 2.002 19.271 2.027 21.156 C2.045 21.99 2.063 22.823 2.082 23.682 C2.002 25.937 1.634 27.841 1 30 C2.65 30 4.3 30 6 30 C6 24.06 6 18.12 6 12 C6.33 12 6.66 12 7 12 C7 18.27 7 24.54 7 31 C4.69 31 2.38 31 0 31 C0 20.77 0 10.54 0 0 Z " fill="#200000" transform="translate(560,503)"/>
<path d="M0 0 C0.33 0 0.66 0 1 0 C1.828 11.686 2.123 23.286 2 35 C1.67 35 1.34 35 1 35 C0.67 37.64 0.34 40.28 0 43 C-0.33 43 -0.66 43 -1 43 C-1.198 28.65 -0.592 14.336 0 0 Z " fill="#56100B" transform="translate(656,752)"/>
<path d="M0 0 C3.96 0 7.92 0 12 0 C10 4 10 4 7 6 C4.668 6.079 2.332 6.088 0 6 C0 4.02 0 2.04 0 0 Z " fill="#396D44" transform="translate(382,692)"/>
<path d="M0 0 C6.6 0 13.2 0 20 0 C20 0.33 20 0.66 20 1 C14.06 1.33 8.12 1.66 2 2 C3.65 3.98 5.3 5.96 7 8 C6.34 8.66 5.68 9.32 5 10 C3.967 8.907 2.949 7.8 1.938 6.688 C1.369 6.073 0.801 5.458 0.215 4.824 C-0.387 3.921 -0.387 3.921 -1 3 C-0.67 2.01 -0.34 1.02 0 0 Z " fill="#B4AAAB" transform="translate(449,726)"/>
<path d="M0 0 C0.66 0 1.32 0 2 0 C2.054 2.375 2.094 4.749 2.125 7.125 C2.15 8.123 2.15 8.123 2.176 9.141 C2.218 13.495 1.6 16.956 0 21 C-0.33 21 -0.66 21 -1 21 C-1.108 13.903 -0.939 7.039 0 0 Z " fill="#2E0708" transform="translate(566,772)"/>
<path d="M0 0 C0.33 0 0.66 0 1 0 C1.058 3.208 1.094 6.416 1.125 9.625 C1.142 10.529 1.159 11.432 1.176 12.363 C1.212 17.328 0.964 21.344 -1 26 C-1.66 26 -2.32 26 -3 26 C-3.33 23.69 -3.66 21.38 -4 19 C-2.68 19 -1.36 19 0 19 C0 12.73 0 6.46 0 0 Z " fill="#355A3C" transform="translate(326,735)"/>
<path d="M0 0 C0.575 0.241 1.15 0.482 1.742 0.73 C0.351 2.006 -1.046 3.276 -2.445 4.543 C-3.223 5.251 -4 5.958 -4.801 6.688 C-7.178 8.664 -9.569 10.216 -12.258 11.73 C-10.792 8.382 -8.921 6.038 -6.383 3.418 C-5.366 2.341 -5.366 2.341 -4.328 1.242 C-2.258 -0.27 -2.258 -0.27 0 0 Z " fill="#2E0708" transform="translate(774.2578125,360.26953125)"/>
<path d="M0 0 C0.66 0.33 1.32 0.66 2 1 C1.553 1.508 1.105 2.016 0.645 2.539 C-2.963 6.646 -6.521 10.783 -10 15 C-10.66 14.67 -11.32 14.34 -12 14 C-8.342 8.889 -4.554 4.337 0 0 Z " fill="#EFBA8C" transform="translate(658,630)"/>
<path d="M0 0 C1.145 0.34 1.145 0.34 2.312 0.688 C-0.265 3.335 -2.604 5.632 -5.688 7.688 C-6.348 7.358 -7.007 7.027 -7.688 6.688 C-4.457 -0.518 -4.457 -0.518 0 0 Z " fill="#2E0708" transform="translate(303.6875,322.3125)"/>
<path d="M0 0 C-1.578 3.71 -3.907 6.299 -6.625 9.25 C-7.442 10.142 -8.26 11.034 -9.102 11.953 C-9.728 12.629 -10.355 13.304 -11 14 C-11 10.461 -10.31 9.727 -8.188 7 C-7.404 5.979 -7.404 5.979 -6.605 4.938 C-2.514 0 -2.514 0 0 0 Z " fill="#35181E" transform="translate(745,623)"/>
<path d="M0 0 C0.474 0.681 0.949 1.361 1.438 2.062 C-0.145 2.117 -1.729 2.155 -3.312 2.188 C-4.194 2.211 -5.076 2.234 -5.984 2.258 C-8.676 2.054 -10.262 1.428 -12.562 0.062 C-10.603 -1.897 -7.444 -1.729 -4.797 -2.016 C-2.562 -1.938 -2.562 -1.938 0 0 Z " fill="#282B17" transform="translate(222.5625,673.9375)"/>
<path d="M0 0 C3.479 -0.029 6.958 -0.047 10.438 -0.062 C11.927 -0.075 11.927 -0.075 13.447 -0.088 C14.392 -0.091 15.336 -0.094 16.309 -0.098 C17.62 -0.106 17.62 -0.106 18.959 -0.114 C21 0 21 0 22 1 C22.041 2.666 22.043 4.334 22 6 C21.01 6.33 20.02 6.66 19 7 C19.33 5.35 19.66 3.7 20 2 C13.4 1.67 6.8 1.34 0 1 C0 0.67 0 0.34 0 0 Z " fill="#200000" transform="translate(877,821)"/>
<path d="M0 0 C0 0.66 0 1.32 0 2 C-5.68 4.491 -8.945 5.388 -15 4 C-15 3.67 -15 3.34 -15 3 C-13.064 2.496 -11.126 1.997 -9.188 1.5 C-8.109 1.222 -7.03 0.943 -5.918 0.656 C-3 0 -3 0 0 0 Z " fill="#2E0708" transform="translate(434,817)"/>
<path d="M0 0 C5.941 1.003 10.202 2.309 15 6 C14.34 6.66 13.68 7.32 13 8 C12.67 7.01 12.34 6.02 12 5 C9.03 4.67 6.06 4.34 3 4 C3 3.34 3 2.68 3 2 C2.01 2 1.02 2 0 2 C0 1.34 0 0.68 0 0 Z " fill="#4C3737" transform="translate(380,671)"/>
<path d="M0 0 C0 0.66 0 1.32 0 2 C-0.887 2.227 -1.774 2.454 -2.688 2.688 C-6.434 4.172 -8.337 6.024 -11 9 C-11.66 8.67 -12.32 8.34 -13 8 C-12.046 6.851 -11.086 5.706 -10.125 4.562 C-9.591 3.924 -9.058 3.286 -8.508 2.629 C-5.839 -0.255 -3.776 -0.099 0 0 Z " fill="#909C3B" transform="translate(871,640)"/>
<path d="M0 0 C0.33 0 0.66 0 1 0 C1.381 1.991 1.713 3.993 2 6 C1.67 6.33 1.34 6.66 1 7 C0.844 8.34 0.75 9.688 0.684 11.035 C0.621 12.248 0.621 12.248 0.557 13.486 C0.517 14.336 0.478 15.187 0.438 16.062 C0.394 16.917 0.351 17.771 0.307 18.65 C0.2 20.767 0.1 22.883 0 25 C-0.33 25 -0.66 25 -1 25 C-1.029 21.771 -1.047 18.542 -1.062 15.312 C-1.071 14.4 -1.079 13.488 -1.088 12.549 C-1.091 11.663 -1.094 10.776 -1.098 9.863 C-1.103 9.052 -1.108 8.24 -1.114 7.404 C-0.993 4.851 -0.56 2.49 0 0 Z " fill="#764E51" transform="translate(119,746)"/>
<path d="M0 0 C0.66 0.33 1.32 0.66 2 1 C1.67 1.99 1.34 2.98 1 4 C-5.6 4 -12.2 4 -19 4 C-18.67 3.34 -18.34 2.68 -18 2 C-12.39 2.33 -6.78 2.66 -1 3 C-0.67 2.01 -0.34 1.02 0 0 Z " fill="#282B17" transform="translate(394,678)"/>
<path d="M0 0 C3.367 1.393 4.986 2.979 7 6 C4.69 6 2.38 6 0 6 C0 4.02 0 2.04 0 0 Z " fill="#466E33" transform="translate(335,813)"/>
<path d="M0 0 C1.765 3.088 2 4.233 2 8 C4.31 8 6.62 8 9 8 C9 8.33 9 8.66 9 9 C1.574 9.487 1.574 9.487 -1.062 7.25 C-2 5 -2 5 -1.75 2.812 C-1 1 -1 1 0 0 Z " fill="#634344" transform="translate(311,526)"/>
<path d="M0 0 C-2.832 1.526 -5.494 2.517 -8.625 3.25 C-9.401 3.441 -10.177 3.632 -10.977 3.828 C-11.644 3.885 -12.312 3.942 -13 4 C-13.66 3.34 -14.32 2.68 -15 2 C-9.756 0.252 -5.527 -0.194 0 0 Z " fill="#461E15" transform="translate(307,342)"/>
<path d="M0 0 C0.33 0 0.66 0 1 0 C1.33 1.98 1.66 3.96 2 6 C3.65 6.33 5.3 6.66 7 7 C6.67 7.99 6.34 8.98 6 10 C1.125 9.125 1.125 9.125 0 8 C-0.141 5.329 -0.042 2.676 0 0 Z " fill="#461E15" transform="translate(674,292)"/>
<path d="M0 0 C3.625 -0.188 3.625 -0.188 7 0 C4.385 2.12 1.804 4.131 -1 6 C-1.33 5.01 -1.66 4.02 -2 3 C-1.34 2.01 -0.68 1.02 0 0 Z " fill="#909C3B" transform="translate(855,595)"/>
<path d="M0 0 C3.3 0 6.6 0 10 0 C10 0.99 10 1.98 10 3 C6.7 3 3.4 3 0 3 C0 2.01 0 1.02 0 0 Z " fill="#5D7ABD" transform="translate(839,692)"/>
<path d="M0 0 C-1.583 4.274 -4.506 6.265 -8 9 C-7.539 4.853 -4.484 0 0 0 Z " fill="#35181E" transform="translate(340,610)"/>
<path d="M0 0 C0.33 0.66 0.66 1.32 1 2 C2.98 2 4.96 2 7 2 C7 2.33 7 2.66 7 3 C5.02 3.33 3.04 3.66 1 4 C0.67 6.97 0.34 9.94 0 13 C-0.33 13 -0.66 13 -1 13 C-1.027 11.021 -1.046 9.042 -1.062 7.062 C-1.074 5.96 -1.086 4.858 -1.098 3.723 C-1 1 -1 1 0 0 Z " fill="#5D7ABD" transform="translate(668,723)"/>
<path d="M0 0 C0 0.33 0 0.66 0 1 C-1.217 1.103 -2.434 1.206 -3.688 1.312 C-7.444 1.758 -9.81 2.936 -13 5 C-13.66 4.67 -14.32 4.34 -15 4 C-9.98 -0.119 -6.401 -0.512 0 0 Z " fill="#634344" transform="translate(308,514)"/>
<path d="M0 0 C0 0.33 0 0.66 0 1 C-1.578 1.155 -1.578 1.155 -3.188 1.312 C-6.874 1.977 -8.966 2.886 -12 5 C-12.66 4.34 -13.32 3.68 -14 3 C-8.991 -0.006 -5.673 -0.293 0 0 Z " fill="#4C3737" transform="translate(385,501)"/>
<path d="M0 0 C0.66 0.33 1.32 0.66 2 1 C-1.96 4.465 -1.96 4.465 -6 8 C-6.66 7.67 -7.32 7.34 -8 7 C-5.422 4.352 -3.084 2.056 0 0 Z " fill="#ED913F" transform="translate(414,387)"/>
<path d="M0 0 C0.688 1.625 0.688 1.625 1 4 C-0.438 7.25 -0.438 7.25 -2 10 C-2.66 9.34 -3.32 8.68 -4 8 C-3.582 4.76 -2.353 2.353 0 0 Z " fill="#BF4431" transform="translate(782,359)"/>
<path d="M0 0 C0.99 0 1.98 0 3 0 C2.34 3.3 1.68 6.6 1 10 C-1.567 6.15 -0.833 4.414 0 0 Z " fill="#D98237" transform="translate(822,333)"/>
<path d="M0 0 C0.33 0 0.66 0 1 0 C1.144 1.217 1.289 2.434 1.438 3.688 C1.828 6.827 2.324 9.908 3 13 C2.01 13 1.02 13 0 13 C0 8.71 0 4.42 0 0 Z " fill="#566FAF" transform="translate(663,805)"/>
<path d="M0 0 C1.32 0 2.64 0 4 0 C2.667 2.667 1.333 5.333 0 8 C-0.381 5.674 -0.713 3.339 -1 1 C-0.67 0.67 -0.34 0.34 0 0 Z " fill="#2E0708" transform="translate(515,694)"/>
<path d="M0 0 C0.911 3.073 1.089 5.801 1 9 C0.34 9 -0.32 9 -1 9 C-1 10.98 -1 12.96 -1 15 C-1.33 15 -1.66 15 -2 15 C-2.194 9.473 -1.748 5.244 0 0 Z " fill="#D08F63" transform="translate(737,647)"/>
<path d="M0 0 C0.66 0 1.32 0 2 0 C0.612 3.354 -0.886 5.113 -4 7 C-4.99 7 -5.98 7 -7 7 C-7 6.34 -7 5.68 -7 5 C-5.824 4.876 -5.824 4.876 -4.625 4.75 C-1.853 4.272 -1.853 4.272 -0.688 1.938 C-0.461 1.298 -0.234 0.659 0 0 Z " fill="#1F100D" transform="translate(332,652)"/>
<path d="M0 0 C0.66 0.33 1.32 0.66 2 1 C1.34 3.31 0.68 5.62 0 8 C-0.99 7.67 -1.98 7.34 -3 7 C-1.125 1.125 -1.125 1.125 0 0 Z " fill="#35181E" transform="translate(599,537)"/>
<path d="M0 0 C1.32 0 2.64 0 4 0 C3.67 2.31 3.34 4.62 3 7 C2.34 7 1.68 7 1 7 C0.67 4.69 0.34 2.38 0 0 Z " fill="#396D44" transform="translate(322,754)"/>
<path d="M0 0 C2.97 0 5.94 0 9 0 C9 0.66 9 1.32 9 2 C6.36 2.33 3.72 2.66 1 3 C0.67 2.01 0.34 1.02 0 0 Z " fill="#4C3737" transform="translate(769,501)"/>
<path d="M0 0 C3.367 1.393 4.986 2.979 7 6 C4 6 4 6 1.812 4.125 C0 2 0 2 0 0 Z " fill="#2E0708" transform="translate(339,803)"/>
<path d="M0 0 C3.243 2.39 5.509 4.205 7 8 C4.138 6.717 1.975 5.469 0 3 C0 2.01 0 1.02 0 0 Z " fill="#2E0708" transform="translate(452,734)"/>
<path d="M0 0 C0 0.33 0 0.66 0 1 C-2.667 1.667 -5.333 2.333 -8 3 C-8.748 3.187 -9.495 3.374 -10.266 3.566 C-10.838 3.709 -11.41 3.853 -12 4 C-8.411 -0.786 -5.583 -0.372 0 0 Z " fill="#4C3737" transform="translate(509,501)"/>
<path d="M0 0 C0.66 0 1.32 0 2 0 C1.34 2.97 0.68 5.94 0 9 C-0.33 9 -0.66 9 -1 9 C-1.098 2.848 -1.098 2.848 -1 1 C-0.67 0.67 -0.34 0.34 0 0 Z " fill="#566FAF" transform="translate(840,717)"/>
<path d="M0 0 C0.66 0.33 1.32 0.66 2 1 C0.02 2.98 -1.96 4.96 -4 7 C-4.99 6.67 -5.98 6.34 -7 6 C-4.69 4.02 -2.38 2.04 0 0 Z " fill="#35181E" transform="translate(144,708)"/>
<path d="M0 0 C0.66 0 1.32 0 2 0 C1.625 2.938 1.625 2.938 1 6 C0.01 6.495 0.01 6.495 -1 7 C-1.66 6.34 -2.32 5.68 -3 5 C-1.625 2.5 -1.625 2.5 0 0 Z " fill="#412A2D" transform="translate(801,527)"/>
<path d="M0 0 C0.99 0.33 1.98 0.66 3 1 C2.67 2.65 2.34 4.3 2 6 C1.01 5.67 0.02 5.34 -1 5 C-0.67 3.35 -0.34 1.7 0 0 Z " fill="#35181E" transform="translate(578,432)"/>
</svg>